<svg width="884" height="1067" viewBox="0 0 884 1067" fill="none" xmlns="http://www.w3.org/2000/svg">
<path d="M171.25 81V83.5H173.202L173.675 81.6063L171.25 81ZM177.75 55L180.175 55.6063L180.952 52.5H177.75V55ZM31 55V52.5H29.0481L28.5746 54.3937L31 55ZM24.5 81L22.0746 80.3937L21.2981 83.5H24.5V81ZM83 81L85.4263 81.6026L86.1968 78.5H83V81ZM45.25 233L42.8237 232.397L42.0532 235.5H45.25V233ZM75 233V235.5H76.9519L77.4254 233.606L75 233ZM113 81V78.5H111.048L110.575 80.3937L113 81ZM173.675 81.6063L180.175 55.6063L175.325 54.3937L168.825 80.3937L173.675 81.6063ZM177.75 52.5H31V57.5H177.75V52.5ZM28.5746 54.3937L22.0746 80.3937L26.9254 81.6063L33.4254 55.6063L28.5746 54.3937ZM24.5 83.5H83V78.5H24.5V83.5ZM80.5737 80.3974L42.8237 232.397L47.6763 233.603L85.4263 81.6026L80.5737 80.3974ZM45.25 235.5H75V230.5H45.25V235.5ZM77.4254 233.606L115.425 81.6063L110.575 80.3937L72.5746 232.394L77.4254 233.606ZM113 83.5H171.25V78.5H113V83.5ZM211.105 119L208.68 118.394L207.904 121.5H211.105V119ZM227.105 55L229.531 55.6063L230.307 52.5H227.105V55ZM198.605 55V52.5H196.651L196.179 54.3969L198.605 55ZM154.355 233L151.929 232.397L151.158 235.5H154.355V233ZM182.855 233V235.5H184.804L185.28 233.61L182.855 233ZM200.605 162.5L203.03 163.11L203.032 163.1L200.605 162.5ZM255.855 159.25L253.436 158.619L253.432 158.634L253.429 158.649L255.855 159.25ZM237.605 233L235.179 232.399L234.411 235.5H237.605V233ZM266.105 233V235.5H268.059L268.531 233.604L266.105 233ZM284.605 158.75L282.185 158.123L282.183 158.134L282.18 158.146L284.605 158.75ZM211.605 119V121.5H212.623L213.351 120.79L211.605 119ZM213.531 119.606L229.531 55.6063L224.68 54.3937L208.68 118.394L213.531 119.606ZM227.105 52.5H198.605V57.5H227.105V52.5ZM196.179 54.3969L151.929 232.397L156.782 233.603L201.032 55.6031L196.179 54.3969ZM154.355 235.5H182.855V230.5H154.355V235.5ZM185.28 233.61L203.03 163.11L198.181 161.89L180.431 232.39L185.28 233.61ZM203.032 163.1C208.833 139.655 223.797 128.5 238.605 128.5V123.5C220.913 123.5 204.378 136.845 198.179 161.9L203.032 163.1ZM238.605 128.5C244.358 128.5 248.461 129.91 251.118 132.39C253.746 134.842 255.355 138.711 255.355 144.5H260.355C260.355 137.789 258.465 132.408 254.53 128.735C250.625 125.09 245.103 123.5 238.605 123.5V128.5ZM255.355 144.5C255.355 148.537 254.883 153.075 253.436 158.619L258.275 159.881C259.828 153.925 260.355 148.963 260.355 144.5H255.355ZM253.429 158.649L235.179 232.399L240.032 233.601L258.282 159.851L253.429 158.649ZM237.605 235.5H266.105V230.5H237.605V235.5ZM268.531 233.604L287.031 159.354L282.18 158.146L263.68 232.396L268.531 233.604ZM287.025 159.377C288.825 152.435 289.605 145.974 289.605 140.25H284.605C284.605 145.526 283.886 151.565 282.185 158.123L287.025 159.377ZM289.605 140.25C289.605 127.502 285.821 117.464 278.642 110.627C271.483 103.809 261.29 100.5 249.105 100.5V105.5C260.421 105.5 269.228 108.566 275.194 114.248C281.14 119.911 284.605 128.498 284.605 140.25H289.605ZM249.105 100.5C233.854 100.5 220.251 107.079 209.86 117.21L213.351 120.79C222.96 111.421 235.357 105.5 249.105 105.5V100.5ZM211.605 116.5H211.105V121.5H211.605V116.5ZM367.328 82.25V84.75H369.284L369.755 82.8511L367.328 82.25ZM374.078 55L376.505 55.6011L377.273 52.5H374.078V55ZM345.578 55V52.5H343.622L343.151 54.3989L345.578 55ZM338.828 82.25L336.401 81.6489L335.633 84.75H338.828V82.25ZM329.828 233V235.5H331.784L332.255 233.602L329.828 233ZM361.328 106L363.755 106.602L364.524 103.5H361.328V106ZM332.828 106V103.5H330.872L330.402 105.398L332.828 106ZM301.328 233L298.902 232.398L298.132 235.5H301.328V233ZM369.755 82.8511L376.505 55.6011L371.651 54.3989L364.901 81.6489L369.755 82.8511ZM374.078 52.5H345.578V57.5H374.078V52.5ZM343.151 54.3989L336.401 81.6489L341.255 82.8511L348.005 55.6011L343.151 54.3989ZM338.828 84.75H367.328V79.75H338.828V84.75ZM332.255 233.602L363.755 106.602L358.902 105.398L327.402 232.398L332.255 233.602ZM361.328 103.5H332.828V108.5H361.328V103.5ZM330.402 105.398L298.902 232.398L303.755 233.602L335.255 106.602L330.402 105.398ZM301.328 235.5H329.828V230.5H301.328V235.5ZM417.27 177.75L416.458 180.115L416.473 180.12L416.489 180.125L417.27 177.75ZM396.52 191.25L398.971 191.74L399.569 188.75H396.52V191.25ZM367.77 191.25V188.75H365.923L365.38 190.515L367.77 191.25ZM436.77 157L437.56 154.628L437.55 154.625L436.77 157ZM455.77 145.5L453.285 145.224L452.976 148H455.77V145.5ZM483.02 145.5V148H485.008L485.456 146.062L483.02 145.5ZM437.77 99.75C400.804 99.75 381.27 120.988 381.27 142.5H386.27C386.27 124.512 402.735 104.75 437.77 104.75V99.75ZM381.27 142.5C381.27 155.439 385.749 163.56 392.675 169.107C399.372 174.472 408.237 177.292 416.458 180.115L418.081 175.385C409.552 172.458 401.667 169.903 395.801 165.205C390.165 160.69 386.27 154.061 386.27 142.5H381.27ZM416.489 180.125C425.339 183.033 431.668 185.247 435.83 187.993C437.857 189.33 439.244 190.718 440.139 192.259C441.024 193.784 441.52 195.618 441.52 198H446.52C446.52 194.882 445.859 192.153 444.463 189.749C443.076 187.361 441.057 185.451 438.584 183.819C433.746 180.628 426.701 178.217 418.05 175.375L416.489 180.125ZM441.52 198C441.52 202.444 439.658 206.065 436.058 208.659C432.372 211.315 426.696 213 419.02 213V218C427.343 218 434.167 216.185 438.981 212.716C443.881 209.185 446.52 204.056 446.52 198H441.52ZM419.02 213C411.548 213 406.287 211.485 402.952 208.996C399.733 206.594 398.02 203.074 398.02 198.25H393.02C393.02 204.426 395.307 209.531 399.962 213.004C404.502 216.39 410.991 218 419.02 218V213ZM398.02 198.25C398.02 196.307 398.45 194.346 398.971 191.74L394.068 190.76C393.589 193.154 393.02 195.693 393.02 198.25H398.02ZM396.52 188.75H367.77V193.75H396.52V188.75ZM365.38 190.515C364.277 194.101 364.02 197.63 364.02 201H369.02C369.02 197.87 369.262 194.899 370.159 191.985L365.38 190.515ZM364.02 201C364.02 213.504 368.993 223.233 378.272 229.735C387.421 236.146 400.505 239.25 416.52 239.25V234.25C401.035 234.25 389.118 231.229 381.142 225.64C373.296 220.142 369.02 211.996 369.02 201H364.02ZM416.52 239.25C456.451 239.25 476.52 217.291 476.52 194.75H471.52C471.52 213.709 454.588 234.25 416.52 234.25V239.25ZM476.52 194.75C476.52 181.228 471.351 172.563 463.681 166.59C456.214 160.775 446.452 157.592 437.56 154.628L435.979 159.372C445.087 162.408 453.95 165.35 460.608 170.535C467.063 175.562 471.52 182.772 471.52 194.75H476.52ZM437.55 154.625C428.708 151.72 423.012 149.633 419.484 147.243C417.783 146.09 416.712 144.945 416.046 143.715C415.382 142.49 415.02 141 415.02 139H410.02C410.02 141.625 410.501 143.979 411.65 146.098C412.795 148.211 414.506 149.91 416.68 151.382C420.902 154.242 427.331 156.53 435.989 159.375L437.55 154.625ZM415.02 139C415.02 135.402 416.533 132.134 419.699 129.701C422.918 127.227 428.013 125.5 435.27 125.5V120.5C427.276 120.5 420.996 122.398 416.652 125.737C412.256 129.116 410.02 133.848 410.02 139H415.02ZM435.27 125.5C441.759 125.5 446.459 126.772 449.479 128.985C452.369 131.103 454.02 134.3 454.02 139H459.02C459.02 132.95 456.795 128.147 452.435 124.952C448.205 121.853 442.28 120.5 435.27 120.5V125.5ZM454.02 139C454.02 139.813 453.917 140.729 453.763 141.803C453.618 142.817 453.415 144.049 453.285 145.224L458.254 145.776C458.374 144.701 458.546 143.683 458.713 142.51C458.872 141.396 459.02 140.187 459.02 139H454.02ZM455.77 148H483.02V143H455.77V148ZM485.456 146.062C486.255 142.598 486.52 139.406 486.52 136.5H481.52C481.52 139.094 481.284 141.902 480.584 144.938L485.456 146.062ZM486.52 136.5C486.52 124.693 482.165 115.337 473.632 109.022C465.218 102.796 453.044 99.75 437.77 99.75V104.75C452.495 104.75 463.446 107.704 470.657 113.041C477.749 118.288 481.52 126.057 481.52 136.5H486.52ZM617.084 82.25V84.75H619.04L619.511 82.8511L617.084 82.25ZM623.834 55L626.261 55.6011L627.029 52.5H623.834V55ZM595.334 55V52.5H593.378L592.907 54.3989L595.334 55ZM588.584 82.25L586.157 81.6489L585.389 84.75H588.584V82.25ZM579.584 233V235.5H581.54L582.01 233.602L579.584 233ZM611.084 106L613.51 106.602L614.28 103.5H611.084V106ZM582.584 106V103.5H580.628L580.158 105.398L582.584 106ZM551.084 233L548.658 232.398L547.888 235.5H551.084V233ZM619.511 82.8511L626.261 55.6011L621.407 54.3989L614.657 81.6489L619.511 82.8511ZM623.834 52.5H595.334V57.5H623.834V52.5ZM592.907 54.3989L586.157 81.6489L591.011 82.8511L597.761 55.6011L592.907 54.3989ZM588.584 84.75H617.084V79.75H588.584V84.75ZM582.01 233.602L613.51 106.602L608.658 105.398L577.158 232.398L582.01 233.602ZM611.084 103.5H582.584V108.5H611.084V103.5ZM580.158 105.398L548.658 232.398L553.51 233.602L585.01 106.602L580.158 105.398ZM551.084 235.5H579.584V230.5H551.084V235.5ZM667.025 177.75L666.214 180.115L666.229 180.12L666.245 180.125L667.025 177.75ZM646.275 191.25L648.727 191.74L649.325 188.75H646.275V191.25ZM617.525 191.25V188.75H615.679L615.136 190.515L617.525 191.25ZM686.525 157L687.316 154.628L687.306 154.625L686.525 157ZM705.525 145.5L703.041 145.224L702.732 148H705.525V145.5ZM732.775 145.5V148H734.764L735.211 146.062L732.775 145.5ZM687.525 99.75C650.56 99.75 631.025 120.988 631.025 142.5H636.025C636.025 124.512 652.491 104.75 687.525 104.75V99.75ZM631.025 142.5C631.025 155.439 635.505 163.56 642.431 169.107C649.128 174.472 657.992 177.292 666.214 180.115L667.837 175.385C659.308 172.458 651.423 169.903 645.557 165.205C639.921 160.69 636.025 154.061 636.025 142.5H631.025ZM666.245 180.125C675.094 183.033 681.423 185.247 685.586 187.993C687.612 189.33 689 190.718 689.895 192.259C690.78 193.784 691.275 195.618 691.275 198H696.275C696.275 194.882 695.615 192.153 694.219 189.749C692.832 187.361 690.813 185.451 688.34 183.819C683.502 180.628 676.456 178.217 667.806 175.375L666.245 180.125ZM691.275 198C691.275 202.444 689.414 206.065 685.814 208.659C682.128 211.315 676.452 213 668.775 213V218C677.099 218 683.923 216.185 688.737 212.716C693.637 209.185 696.275 204.056 696.275 198H691.275ZM668.775 213C661.304 213 656.043 211.485 652.708 208.996C649.488 206.594 647.775 203.074 647.775 198.25H642.775C642.775 204.426 645.062 209.531 649.718 213.004C654.258 216.39 660.747 218 668.775 218V213ZM647.775 198.25C647.775 196.307 648.206 194.346 648.727 191.74L643.824 190.76C643.345 193.154 642.775 195.693 642.775 198.25H647.775ZM646.275 188.75H617.525V193.75H646.275V188.75ZM615.136 190.515C614.032 194.101 613.775 197.63 613.775 201H618.775C618.775 197.87 619.018 194.899 619.915 191.985L615.136 190.515ZM613.775 201C613.775 213.504 618.749 223.233 628.028 229.735C637.177 236.146 650.26 239.25 666.275 239.25V234.25C650.79 234.25 638.874 231.229 630.898 225.64C623.052 220.142 618.775 211.996 618.775 201H613.775ZM666.275 239.25C706.207 239.25 726.275 217.291 726.275 194.75H721.275C721.275 213.709 704.344 234.25 666.275 234.25V239.25ZM726.275 194.75C726.275 181.228 721.106 172.563 713.436 166.59C705.97 160.775 696.208 157.592 687.316 154.628L685.735 159.372C694.843 162.408 703.706 165.35 710.364 170.535C716.819 175.562 721.275 182.772 721.275 194.75H726.275ZM687.306 154.625C678.463 151.72 672.768 149.633 669.24 147.243C667.539 146.09 666.468 144.945 665.801 143.715C665.137 142.49 664.775 141 664.775 139H659.775C659.775 141.625 660.257 143.979 661.406 146.098C662.551 148.211 664.262 149.91 666.436 151.382C670.658 154.242 677.087 156.53 685.745 159.375L687.306 154.625ZM664.775 139C664.775 135.402 666.289 132.134 669.455 129.701C672.674 127.227 677.769 125.5 685.025 125.5V120.5C677.032 120.5 670.752 122.398 666.408 125.737C662.012 129.116 659.775 133.848 659.775 139H664.775ZM685.025 125.5C691.515 125.5 696.215 126.772 699.235 128.985C702.125 131.103 703.775 134.3 703.775 139H708.775C708.775 132.95 706.551 128.147 702.191 124.952C697.961 121.853 692.036 120.5 685.025 120.5V125.5ZM703.775 139C703.775 139.813 703.673 140.729 703.519 141.803C703.374 142.817 703.171 144.049 703.041 145.224L708.01 145.776C708.13 144.701 708.301 143.683 708.469 142.51C708.628 141.396 708.775 140.187 708.775 139H703.775ZM705.525 148H732.775V143H705.525V148ZM735.211 146.062C736.011 142.598 736.275 139.406 736.275 136.5H731.275C731.275 139.094 731.04 141.902 730.339 144.938L735.211 146.062ZM736.275 136.5C736.275 124.693 731.921 115.337 723.388 109.022C714.974 102.796 702.8 99.75 687.525 99.75V104.75C702.251 104.75 713.202 107.704 720.413 113.041C727.505 118.288 731.275 126.057 731.275 136.5H736.275ZM62.5 387.75V385.25H60.55L60.0752 387.141L62.5 387.75ZM87.25 387.75V390.25H89.2184L89.6802 388.337L87.25 387.75ZM92.5 366L94.9302 366.587L95.6752 363.5H92.5V366ZM67.75 366L65.3258 365.389L64.5419 368.5H67.75V366ZM75.75 334.25L78.1742 334.861L78.9581 331.75H75.75V334.25ZM47.25 334.25V331.75H45.2868L44.8213 333.657L47.25 334.25ZM39.5 366V368.5H41.4632L41.9287 366.593L39.5 366ZM18 366V363.5H16.0317L15.5698 365.413L18 366ZM12.75 387.75L10.3198 387.163L9.57475 390.25H12.75V387.75ZM34 387.75L36.4265 388.352L37.1955 385.25H34V387.75ZM19 448.25L21.414 448.9L21.4205 448.876L21.4265 448.852L19 448.25ZM62.25 493L62.8122 495.436L64.2997 495.093L64.6738 493.613L62.25 493ZM68 470.25L70.4238 470.863L71.4179 466.929L67.4577 467.81L68 470.25ZM47 449.5L44.5752 448.891L44.5605 448.95L44.5486 449.01L47 449.5ZM62.5 390.25H87.25V385.25H62.5V390.25ZM89.6802 388.337L94.9302 366.587L90.0698 365.413L84.8198 387.163L89.6802 388.337ZM92.5 363.5H67.75V368.5H92.5V363.5ZM70.1742 366.611L78.1742 334.861L73.3258 333.639L65.3258 365.389L70.1742 366.611ZM75.75 331.75H47.25V336.75H75.75V331.75ZM44.8213 333.657L37.0713 365.407L41.9287 366.593L49.6787 334.843L44.8213 333.657ZM39.5 363.5H18V368.5H39.5V363.5ZM15.5698 365.413L10.3198 387.163L15.1802 388.337L20.4302 366.587L15.5698 365.413ZM12.75 390.25H34V385.25H12.75V390.25ZM31.5735 387.148L16.5735 447.648L21.4265 448.852L36.4265 388.352L31.5735 387.148ZM16.586 447.6C14.7855 454.287 14 460.506 14 465.5H19C19 460.994 19.7145 455.213 21.414 448.9L16.586 447.6ZM14 465.5C14 476.153 16.7367 484.249 23.0034 489.59C29.1772 494.852 38.2818 497 50 497V492C38.7182 492 31.0729 489.898 26.2466 485.785C21.5133 481.751 19 475.347 19 465.5H14ZM50 497C53.9847 497 59.4281 496.217 62.8122 495.436L61.6879 490.564C58.5719 491.283 53.5153 492 50 492V497ZM64.6738 493.613L70.4238 470.863L65.5762 469.637L59.8262 492.387L64.6738 493.613ZM67.4577 467.81C65.3234 468.284 62.2632 468.75 59.5 468.75V473.75C62.7368 473.75 66.1766 473.216 68.5423 472.69L67.4577 467.81ZM59.5 468.75C54.9623 468.75 52.286 467.895 50.7234 466.506C49.2313 465.18 48.25 462.904 48.25 458.75H43.25C43.25 463.596 44.3937 467.57 47.4016 470.244C50.339 472.855 54.5377 473.75 59.5 473.75V468.75ZM48.25 458.75C48.25 456.528 48.6992 453.752 49.4515 449.99L44.5486 449.01C43.8008 452.748 43.25 455.972 43.25 458.75H48.25ZM49.4248 450.109L64.9248 388.359L60.0752 387.141L44.5752 448.891L49.4248 450.109ZM143.967 379L141.541 378.394L140.765 381.5H143.967V379ZM159.967 315L162.392 315.606L163.169 312.5H159.967V315ZM131.467 315V312.5H129.512L129.041 314.397L131.467 315ZM87.2168 493L84.7906 492.397L84.0192 495.5H87.2168V493ZM115.717 493V495.5H117.665L118.141 493.61L115.717 493ZM133.467 422.5L135.891 423.11L135.894 423.1L133.467 422.5ZM188.717 419.25L186.298 418.619L186.294 418.634L186.29 418.649L188.717 419.25ZM170.467 493L168.04 492.399L167.273 495.5H170.467V493ZM198.967 493V495.5H200.92L201.393 493.604L198.967 493ZM217.467 418.75L215.047 418.123L215.044 418.134L215.041 418.146L217.467 418.75ZM144.467 379V381.5H145.484L146.212 380.79L144.467 379ZM146.392 379.606L162.392 315.606L157.541 314.394L141.541 378.394L146.392 379.606ZM159.967 312.5H131.467V317.5H159.967V312.5ZM129.041 314.397L84.7906 492.397L89.643 493.603L133.893 315.603L129.041 314.397ZM87.2168 495.5H115.717V490.5H87.2168V495.5ZM118.141 493.61L135.891 423.11L131.042 421.89L113.292 492.39L118.141 493.61ZM135.894 423.1C141.695 399.655 156.659 388.5 171.467 388.5V383.5C153.775 383.5 137.239 396.845 131.04 421.9L135.894 423.1ZM171.467 388.5C177.219 388.5 181.322 389.91 183.98 392.39C186.607 394.842 188.217 398.711 188.217 404.5H193.217C193.217 397.789 191.327 392.408 187.391 388.735C183.487 385.09 177.964 383.5 171.467 383.5V388.5ZM188.217 404.5C188.217 408.537 187.744 413.075 186.298 418.619L191.136 419.881C192.69 413.925 193.217 408.963 193.217 404.5H188.217ZM186.29 418.649L168.04 492.399L172.894 493.601L191.144 419.851L186.29 418.649ZM170.467 495.5H198.967V490.5H170.467V495.5ZM201.393 493.604L219.893 419.354L215.041 418.146L196.541 492.396L201.393 493.604ZM219.887 419.377C221.687 412.435 222.467 405.974 222.467 400.25H217.467C217.467 405.526 216.747 411.565 215.047 418.123L219.887 419.377ZM222.467 400.25C222.467 387.502 218.682 377.464 211.503 370.627C204.345 363.809 194.151 360.5 181.967 360.5V365.5C193.283 365.5 202.089 368.566 208.055 374.248C214.002 379.911 217.467 388.498 217.467 400.25H222.467ZM181.967 360.5C166.715 360.5 153.112 367.079 142.722 377.21L146.212 380.79C155.822 371.421 168.218 365.5 181.967 365.5V360.5ZM144.467 376.5H143.967V381.5H144.467V376.5ZM361.189 435.25V437.75H363.178L363.625 435.812L361.189 435.25ZM354.689 454.75L357.005 455.692L358.405 452.25H354.689V454.75ZM325.689 454.75V452.25H324.01L323.375 453.805L325.689 454.75ZM268.439 435.25V432.75H266.322L265.973 434.839L268.439 435.25ZM337.439 416.5V419H339.722L339.929 416.726L337.439 416.5ZM272.939 416.5L270.565 415.718L269.483 419H272.939V416.5ZM363.625 435.812C365.909 425.915 366.689 418.724 366.689 412.25H361.689C361.689 418.276 360.97 425.085 358.753 434.688L363.625 435.812ZM366.689 412.25C366.689 396.67 362.306 383.473 353.264 374.164C344.209 364.842 330.804 359.75 313.439 359.75V364.75C329.825 364.75 341.795 369.533 349.677 377.648C357.573 385.777 361.689 397.58 361.689 412.25H366.689ZM313.439 359.75C288.284 359.75 269.279 371.909 256.638 388.517C244.042 405.065 237.689 426.103 237.689 444.25H242.689C242.689 427.147 248.712 407.185 260.616 391.545C272.475 375.966 290.095 364.75 313.439 364.75V359.75ZM237.689 444.25C237.689 460.8 242.119 474.62 251.313 484.314C260.528 494.03 274.197 499.25 291.939 499.25V494.25C275.182 494.25 262.976 489.345 254.941 480.873C246.885 472.38 242.689 459.95 242.689 444.25H237.689ZM291.939 499.25C323.311 499.25 347.413 479.283 357.005 455.692L352.374 453.808C343.466 475.717 321.068 494.25 291.939 494.25V499.25ZM354.689 452.25H325.689V457.25H354.689V452.25ZM323.375 453.805C318.758 465.116 307.673 473.25 293.439 473.25V478.25C309.706 478.25 322.621 468.884 328.004 455.695L323.375 453.805ZM293.439 473.25C286.245 473.25 280.396 471.308 276.345 467.339C272.307 463.383 269.689 457.05 269.689 447.5H264.689C264.689 457.95 267.572 465.742 272.846 470.911C278.108 476.067 285.384 478.25 293.439 478.25V473.25ZM269.689 447.5C269.689 443.958 270.162 440.119 270.905 435.661L265.973 434.839C265.216 439.381 264.689 443.542 264.689 447.5H269.689ZM268.439 437.75H361.189V432.75H268.439V437.75ZM311.689 385.75C319.136 385.75 325.016 387.757 329.016 391.485C332.988 395.187 335.439 400.894 335.439 409H340.439C340.439 399.856 337.641 392.688 332.425 387.827C327.238 382.993 319.993 380.75 311.689 380.75V385.75ZM335.439 409C335.439 411.108 335.205 413.469 334.95 416.274L339.929 416.726C340.174 414.031 340.439 411.392 340.439 409H335.439ZM337.439 414H272.939V419H337.439V414ZM275.314 417.282C282.314 396.041 296.525 385.75 311.689 385.75V380.75C293.854 380.75 278.065 392.959 270.565 415.718L275.314 417.282ZM559.188 435.25V437.75H561.176L561.623 435.812L559.188 435.25ZM552.688 454.75L555.003 455.692L556.403 452.25H552.688V454.75ZM523.688 454.75V452.25H522.008L521.373 453.805L523.688 454.75ZM466.437 435.25V432.75H464.32L463.972 434.839L466.437 435.25ZM535.438 416.5V419H537.721L537.927 416.726L535.438 416.5ZM470.938 416.5L468.563 415.718L467.481 419H470.938V416.5ZM561.623 435.812C563.907 425.915 564.688 418.724 564.688 412.25H559.688C559.688 418.276 558.968 425.085 556.752 434.688L561.623 435.812ZM564.688 412.25C564.688 396.67 560.304 383.473 551.262 374.164C542.207 364.842 528.802 359.75 511.438 359.75V364.75C527.823 364.75 539.793 369.533 547.675 377.648C555.571 385.777 559.688 397.58 559.688 412.25H564.688ZM511.438 359.75C486.282 359.75 467.277 371.909 454.636 388.517C442.04 405.065 435.688 426.103 435.688 444.25H440.688C440.688 427.147 446.71 407.185 458.614 391.545C470.473 375.966 488.093 364.75 511.438 364.75V359.75ZM435.688 444.25C435.688 460.8 440.117 474.62 449.311 484.314C458.526 494.03 472.195 499.25 489.938 499.25V494.25C473.18 494.25 460.974 489.345 452.939 480.873C444.883 472.38 440.688 459.95 440.688 444.25H435.688ZM489.938 499.25C521.309 499.25 545.411 479.283 555.003 455.692L550.372 453.808C541.464 475.717 519.066 494.25 489.938 494.25V499.25ZM552.688 452.25H523.688V457.25H552.688V452.25ZM521.373 453.805C516.756 465.116 505.671 473.25 491.438 473.25V478.25C507.704 478.25 520.619 468.884 526.002 455.695L521.373 453.805ZM491.438 473.25C484.243 473.25 478.394 471.308 474.343 467.339C470.305 463.383 467.688 457.05 467.688 447.5H462.688C462.688 457.95 465.57 465.742 470.844 470.911C476.106 476.067 483.382 478.25 491.438 478.25V473.25ZM467.688 447.5C467.688 443.958 468.161 440.119 468.903 435.661L463.972 434.839C463.214 439.381 462.688 443.542 462.688 447.5H467.688ZM466.437 437.75H559.188V432.75H466.437V437.75ZM509.688 385.75C517.134 385.75 523.014 387.757 527.014 391.485C530.986 395.187 533.438 400.894 533.438 409H538.438C538.438 399.856 535.639 392.688 530.423 387.827C525.236 382.993 517.991 380.75 509.688 380.75V385.75ZM533.438 409C533.438 411.108 533.203 413.469 532.948 416.274L537.927 416.726C538.172 414.031 538.438 411.392 538.438 409H533.438ZM535.438 414H470.938V419H535.438V414ZM473.312 417.282C480.312 396.041 494.523 385.75 509.688 385.75V380.75C491.852 380.75 476.063 392.959 468.563 415.718L473.312 417.282ZM628.068 380.5V383H629.104L629.836 382.268L628.068 380.5ZM627.568 380.5L625.148 379.874L624.34 383H627.568V380.5ZM631.318 366L633.739 366.626L634.547 363.5H631.318V366ZM604.318 366V363.5H602.366L601.893 365.394L604.318 366ZM572.568 493L570.143 492.394L569.366 495.5H572.568V493ZM601.068 493V495.5H603.017L603.493 493.61L601.068 493ZM618.818 422.5L621.243 423.11L621.245 423.1L618.818 422.5ZM674.068 419.25L671.649 418.619L671.645 418.634L671.642 418.649L674.068 419.25ZM655.818 493L653.392 492.399L652.624 495.5H655.818V493ZM684.318 493V495.5H686.272L686.744 493.604L684.318 493ZM702.818 418.75L700.398 418.123L700.395 418.134L700.393 418.146L702.818 418.75ZM667.318 360.5C651.517 360.5 637.162 367.871 626.301 378.732L629.836 382.268C639.975 372.129 653.12 365.5 667.318 365.5V360.5ZM628.068 378H627.568V383H628.068V378ZM629.989 381.126L633.739 366.626L628.898 365.374L625.148 379.874L629.989 381.126ZM631.318 363.5H604.318V368.5H631.318V363.5ZM601.893 365.394L570.143 492.394L574.994 493.606L606.744 366.606L601.893 365.394ZM572.568 495.5H601.068V490.5H572.568V495.5ZM603.493 493.61L621.243 423.11L616.394 421.89L598.644 492.39L603.493 493.61ZM621.245 423.1C627.046 399.655 642.01 388.5 656.818 388.5V383.5C639.126 383.5 622.591 396.845 616.392 421.9L621.245 423.1ZM656.818 388.5C662.571 388.5 666.674 389.91 669.331 392.39C671.958 394.842 673.568 398.711 673.568 404.5H678.568C678.568 397.789 676.678 392.408 672.743 388.735C668.838 385.09 663.316 383.5 656.818 383.5V388.5ZM673.568 404.5C673.568 408.537 673.096 413.075 671.649 418.619L676.487 419.881C678.041 413.925 678.568 408.963 678.568 404.5H673.568ZM671.642 418.649L653.392 492.399L658.245 493.601L676.495 419.851L671.642 418.649ZM655.818 495.5H684.318V490.5H655.818V495.5ZM686.744 493.604L705.244 419.354L700.393 418.146L681.893 492.396L686.744 493.604ZM705.238 419.377C707.038 412.435 707.818 405.974 707.818 400.25H702.818C702.818 405.526 702.098 411.565 700.398 418.123L705.238 419.377ZM707.818 400.25C707.818 387.515 704.103 377.473 696.953 370.631C689.821 363.806 679.622 360.5 667.318 360.5V365.5C678.765 365.5 687.566 368.569 693.496 374.244C699.409 379.902 702.818 388.485 702.818 400.25H707.818ZM829.291 493V495.5H831.243L831.716 493.606L829.291 493ZM873.791 315L876.216 315.606L876.993 312.5H873.791V315ZM845.291 315V312.5H843.332L842.864 314.402L845.291 315ZM828.041 385V387.5H830L830.468 385.598L828.041 385ZM827.541 385L825.192 385.854L825.79 387.5H827.541V385ZM804.291 480.25V477.75H803.237L802.501 478.505L804.291 480.25ZM804.791 480.25L807.214 480.868L808.008 477.75H804.791V480.25ZM801.541 493L799.118 492.382L798.324 495.5H801.541V493ZM831.716 493.606L876.216 315.606L871.366 314.394L826.866 492.394L831.716 493.606ZM873.791 312.5H845.291V317.5H873.791V312.5ZM842.864 314.402L825.614 384.402L830.468 385.598L847.718 315.598L842.864 314.402ZM828.041 382.5H827.541V387.5H828.041V382.5ZM829.891 384.146C824.475 369.254 810.668 360.5 793.041 360.5V365.5C808.914 365.5 820.607 373.246 825.192 385.854L829.891 384.146ZM793.041 360.5C769.766 360.5 752.012 373.153 740.176 390.166C728.371 407.136 722.291 428.639 722.291 447H727.291C727.291 429.611 733.086 409.114 744.281 393.021C755.445 376.972 771.816 365.5 793.041 365.5V360.5ZM722.291 447C722.291 462.775 726.331 475.746 734.288 484.806C742.285 493.912 753.962 498.75 768.541 498.75V493.75C755.12 493.75 744.922 489.338 738.044 481.507C731.126 473.629 727.291 461.975 727.291 447H722.291ZM768.541 498.75C782.046 498.75 795.92 492.417 806.081 481.995L802.501 478.505C793.162 488.083 780.536 493.75 768.541 493.75V498.75ZM804.291 482.75H804.791V477.75H804.291V482.75ZM802.368 479.632L799.118 492.382L803.964 493.618L807.214 480.868L802.368 479.632ZM801.541 495.5H829.291V490.5H801.541V495.5ZM795.791 387.5C802.691 387.5 807.787 390.114 811.244 394.823C814.783 399.643 816.791 406.921 816.791 416.5H821.791C821.791 406.329 819.674 397.857 815.275 391.864C810.795 385.761 804.141 382.5 795.791 382.5V387.5ZM816.791 416.5C816.791 428.341 813.393 442.26 806.808 453.143C800.231 464.015 790.733 471.5 778.541 471.5V476.5C793.099 476.5 803.976 467.485 811.086 455.732C818.189 443.99 821.791 429.159 821.791 416.5H816.791ZM778.541 471.5C771.64 471.5 766.541 468.885 763.083 464.203C759.547 459.413 757.541 452.198 757.541 442.75H752.541C752.541 452.802 754.66 461.212 759.061 467.172C763.541 473.24 770.192 476.5 778.541 476.5V471.5ZM757.541 442.75C757.541 430.908 760.94 416.925 767.527 405.976C774.108 395.037 783.607 387.5 795.791 387.5V382.5C781.225 382.5 770.349 391.588 763.243 403.399C756.142 415.2 752.541 430.092 752.541 442.75H757.541Z" fill="black"/>
<path d="M171.25 144L177.75 118H31L24.5 144H83L45.25 296H75L113 144H171.25ZM211.105 182L227.105 118H198.605L154.355 296H182.855L200.605 225.5C206.605 201.25 222.355 189 238.605 189C250.855 189 257.855 195 257.855 207.5C257.855 211.75 257.355 216.5 255.855 222.25L237.605 296H266.105L284.605 221.75C286.355 215 287.105 208.75 287.105 203.25C287.105 178.75 272.605 166 249.105 166C234.605 166 221.605 172.25 211.605 182H211.105ZM367.328 145.25L374.078 118H345.578L338.828 145.25H367.328ZM329.828 296L361.328 169H332.828L301.328 296H329.828ZM437.77 165.25C401.77 165.25 383.77 185.75 383.77 205.5C383.77 230 400.52 235 417.27 240.75C434.77 246.5 444.02 250 444.02 261C444.02 271.5 435.02 278.5 419.02 278.5C403.52 278.5 395.52 272.25 395.52 261.25C395.52 259 396.02 256.75 396.52 254.25H367.77C366.77 257.5 366.52 260.75 366.52 264C366.52 287.5 385.02 299.75 416.52 299.75C455.52 299.75 474.02 278.5 474.02 257.75C474.02 232.25 454.77 226 436.77 220C419.27 214.25 412.52 211.25 412.52 202C412.52 193.25 420.02 186 435.27 186C448.77 186 456.52 191.25 456.52 202C456.52 204 456.02 206.25 455.77 208.5H483.02C483.77 205.25 484.02 202.25 484.02 199.5C484.02 177.25 467.77 165.25 437.77 165.25ZM617.084 145.25L623.834 118H595.334L588.584 145.25H617.084ZM579.584 296L611.084 169H582.584L551.084 296H579.584ZM687.525 165.25C651.525 165.25 633.525 185.75 633.525 205.5C633.525 230 650.275 235 667.025 240.75C684.525 246.5 693.775 250 693.775 261C693.775 271.5 684.775 278.5 668.775 278.5C653.275 278.5 645.275 272.25 645.275 261.25C645.275 259 645.775 256.75 646.275 254.25H617.525C616.525 257.5 616.275 260.75 616.275 264C616.275 287.5 634.775 299.75 666.275 299.75C705.275 299.75 723.775 278.5 723.775 257.75C723.775 232.25 704.525 226 686.525 220C669.025 214.25 662.275 211.25 662.275 202C662.275 193.25 669.775 186 685.025 186C698.525 186 706.275 191.25 706.275 202C706.275 204 705.775 206.25 705.525 208.5H732.775C733.525 205.25 733.775 202.25 733.775 199.5C733.775 177.25 717.525 165.25 687.525 165.25ZM62.5 450.75H87.25L92.5 429H67.75L75.75 397.25H47.25L39.5 429H18L12.75 450.75H34L19 511.25C17.25 517.75 16.5 523.75 16.5 528.5C16.5 549 27 557.5 50 557.5C53.75 557.5 59 556.75 62.25 556L68 533.25C65.75 533.75 62.5 534.25 59.5 534.25C50 534.25 45.75 530.75 45.75 521.75C45.75 519.25 46.25 516.25 47 512.5L62.5 450.75ZM143.967 442L159.967 378H131.467L87.2168 556H115.717L133.467 485.5C139.467 461.25 155.217 449 171.467 449C183.717 449 190.717 455 190.717 467.5C190.717 471.75 190.217 476.5 188.717 482.25L170.467 556H198.967L217.467 481.75C219.217 475 219.967 468.75 219.967 463.25C219.967 438.75 205.467 426 181.967 426C167.467 426 154.467 432.25 144.467 442H143.967ZM361.189 498.25C363.439 488.5 364.189 481.5 364.189 475.25C364.189 445 347.189 425.25 313.439 425.25C264.939 425.25 240.189 472 240.189 507.25C240.189 539.5 257.439 559.75 291.939 559.75C322.189 559.75 345.439 540.5 354.689 517.75H325.689C320.689 530 308.689 538.75 293.439 538.75C278.189 538.75 267.189 530.5 267.189 510.5C267.189 506.75 267.689 502.75 268.439 498.25H361.189ZM311.689 446.25C327.439 446.25 337.939 454.75 337.939 472C337.939 474.25 337.689 476.75 337.439 479.5H272.939C280.189 457.5 295.189 446.25 311.689 446.25ZM559.188 498.25C561.438 488.5 562.188 481.5 562.188 475.25C562.188 445 545.188 425.25 511.438 425.25C462.938 425.25 438.188 472 438.188 507.25C438.188 539.5 455.438 559.75 489.938 559.75C520.188 559.75 543.438 540.5 552.688 517.75H523.688C518.688 530 506.688 538.75 491.438 538.75C476.188 538.75 465.188 530.5 465.188 510.5C465.188 506.75 465.688 502.75 466.437 498.25H559.188ZM509.688 446.25C525.438 446.25 535.938 454.75 535.938 472C535.938 474.25 535.688 476.75 535.438 479.5H470.938C478.188 457.5 493.188 446.25 509.688 446.25ZM667.318 426C652.318 426 638.568 433 628.068 443.5H627.568L631.318 429H604.318L572.568 556H601.068L618.818 485.5C624.818 461.25 640.568 449 656.818 449C669.068 449 676.068 455 676.068 467.5C676.068 471.75 675.568 476.5 674.068 482.25L655.818 556H684.318L702.818 481.75C704.568 475 705.318 468.75 705.318 463.25C705.318 438.75 691.068 426 667.318 426ZM829.291 556L873.791 378H845.291L828.041 448H827.541C822.541 434.25 809.791 426 793.041 426C748.541 426 724.791 474.25 724.791 510C724.791 540.75 740.541 559.25 768.541 559.25C781.291 559.25 794.541 553.25 804.291 543.25H804.791L801.541 556H829.291ZM795.791 448C811.041 448 819.291 459.75 819.291 479.5C819.291 504 805.291 537 778.541 537C763.291 537 755.041 525.25 755.041 505.75C755.041 481.25 769.041 448 795.791 448Z" fill="black"/>
</svg>
