<svg width="885" height="1080" viewBox="0 0 885 1080" fill="none" xmlns="http://www.w3.org/2000/svg">
<path d="M172.25 81V83.5H174.202L174.675 81.6063L172.25 81ZM178.75 55L181.175 55.6063L181.952 52.5H178.75V55ZM32 55V52.5H30.0481L29.5746 54.3937L32 55ZM25.5 81L23.0746 80.3937L22.2981 83.5H25.5V81ZM84 81L86.4263 81.6026L87.1968 78.5H84V81ZM46.25 233L43.8237 232.397L43.0532 235.5H46.25V233ZM76 233V235.5H77.9519L78.4254 233.606L76 233ZM114 81V78.5H112.048L111.575 80.3937L114 81ZM174.675 81.6063L181.175 55.6063L176.325 54.3937L169.825 80.3937L174.675 81.6063ZM178.75 52.5H32V57.5H178.75V52.5ZM29.5746 54.3937L23.0746 80.3937L27.9254 81.6063L34.4254 55.6063L29.5746 54.3937ZM25.5 83.5H84V78.5H25.5V83.5ZM81.5737 80.3974L43.8237 232.397L48.6763 233.603L86.4263 81.6026L81.5737 80.3974ZM46.25 235.5H76V230.5H46.25V235.5ZM78.4254 233.606L116.425 81.6063L111.575 80.3937L73.5746 232.394L78.4254 233.606ZM114 83.5H172.25V78.5H114V83.5ZM212.105 119L209.68 118.394L208.904 121.5H212.105V119ZM228.105 55L230.531 55.6063L231.307 52.5H228.105V55ZM199.605 55V52.5H197.651L197.179 54.3969L199.605 55ZM155.355 233L152.929 232.397L152.158 235.5H155.355V233ZM183.855 233V235.5H185.804L186.28 233.61L183.855 233ZM201.605 162.5L204.03 163.11L204.032 163.1L201.605 162.5ZM256.855 159.25L254.436 158.619L254.432 158.634L254.429 158.649L256.855 159.25ZM238.605 233L236.179 232.399L235.411 235.5H238.605V233ZM267.105 233V235.5H269.059L269.531 233.604L267.105 233ZM285.605 158.75L283.185 158.123L283.182 158.134L283.18 158.146L285.605 158.75ZM212.605 119V121.5H213.623L214.351 120.79L212.605 119ZM214.531 119.606L230.531 55.6063L225.68 54.3937L209.68 118.394L214.531 119.606ZM228.105 52.5H199.605V57.5H228.105V52.5ZM197.179 54.3969L152.929 232.397L157.782 233.603L202.032 55.6031L197.179 54.3969ZM155.355 235.5H183.855V230.5H155.355V235.5ZM186.28 233.61L204.03 163.11L199.181 161.89L181.431 232.39L186.28 233.61ZM204.032 163.1C209.833 139.655 224.797 128.5 239.605 128.5V123.5C221.913 123.5 205.378 136.845 199.179 161.9L204.032 163.1ZM239.605 128.5C245.358 128.5 249.461 129.91 252.118 132.39C254.746 134.842 256.355 138.711 256.355 144.5H261.355C261.355 137.789 259.465 132.408 255.53 128.735C251.625 125.09 246.103 123.5 239.605 123.5V128.5ZM256.355 144.5C256.355 148.537 255.883 153.075 254.436 158.619L259.275 159.881C260.828 153.925 261.355 148.963 261.355 144.5H256.355ZM254.429 158.649L236.179 232.399L241.032 233.601L259.282 159.851L254.429 158.649ZM238.605 235.5H267.105V230.5H238.605V235.5ZM269.531 233.604L288.031 159.354L283.18 158.146L264.68 232.396L269.531 233.604ZM288.025 159.377C289.825 152.435 290.605 145.974 290.605 140.25H285.605C285.605 145.526 284.886 151.565 283.185 158.123L288.025 159.377ZM290.605 140.25C290.605 127.502 286.821 117.464 279.642 110.627C272.483 103.809 262.29 100.5 250.105 100.5V105.5C261.421 105.5 270.228 108.566 276.194 114.248C282.14 119.911 285.605 128.498 285.605 140.25H290.605ZM250.105 100.5C234.854 100.5 221.251 107.079 210.86 117.21L214.351 120.79C223.96 111.421 236.357 105.5 250.105 105.5V100.5ZM212.605 116.5H212.105V121.5H212.605V116.5ZM368.328 82.25V84.75H370.284L370.755 82.8511L368.328 82.25ZM375.078 55L377.505 55.6011L378.273 52.5H375.078V55ZM346.578 55V52.5H344.622L344.151 54.3989L346.578 55ZM339.828 82.25L337.401 81.6489L336.633 84.75H339.828V82.25ZM330.828 233V235.5H332.784L333.255 233.602L330.828 233ZM362.328 106L364.755 106.602L365.524 103.5H362.328V106ZM333.828 106V103.5H331.872L331.402 105.398L333.828 106ZM302.328 233L299.902 232.398L299.132 235.5H302.328V233ZM370.755 82.8511L377.505 55.6011L372.651 54.3989L365.901 81.6489L370.755 82.8511ZM375.078 52.5H346.578V57.5H375.078V52.5ZM344.151 54.3989L337.401 81.6489L342.255 82.8511L349.005 55.6011L344.151 54.3989ZM339.828 84.75H368.328V79.75H339.828V84.75ZM333.255 233.602L364.755 106.602L359.902 105.398L328.402 232.398L333.255 233.602ZM362.328 103.5H333.828V108.5H362.328V103.5ZM331.402 105.398L299.902 232.398L304.755 233.602L336.255 106.602L331.402 105.398ZM302.328 235.5H330.828V230.5H302.328V235.5ZM418.27 177.75L417.458 180.115L417.473 180.12L417.489 180.125L418.27 177.75ZM397.52 191.25L399.971 191.74L400.569 188.75H397.52V191.25ZM368.77 191.25V188.75H366.923L366.38 190.515L368.77 191.25ZM437.77 157L438.56 154.628L438.55 154.625L437.77 157ZM456.77 145.5L454.285 145.224L453.976 148H456.77V145.5ZM484.02 145.5V148H486.008L486.456 146.062L484.02 145.5ZM438.77 99.75C401.804 99.75 382.27 120.988 382.27 142.5H387.27C387.27 124.512 403.735 104.75 438.77 104.75V99.75ZM382.27 142.5C382.27 155.439 386.749 163.56 393.675 169.107C400.372 174.472 409.237 177.292 417.458 180.115L419.081 175.385C410.552 172.458 402.667 169.903 396.801 165.205C391.165 160.69 387.27 154.061 387.27 142.5H382.27ZM417.489 180.125C426.339 183.033 432.668 185.247 436.83 187.993C438.857 189.33 440.244 190.718 441.139 192.259C442.024 193.784 442.52 195.618 442.52 198H447.52C447.52 194.882 446.859 192.153 445.463 189.749C444.076 187.361 442.057 185.451 439.584 183.819C434.746 180.628 427.701 178.217 419.05 175.375L417.489 180.125ZM442.52 198C442.52 202.444 440.658 206.065 437.058 208.659C433.372 211.315 427.696 213 420.02 213V218C428.343 218 435.167 216.185 439.981 212.716C444.881 209.185 447.52 204.056 447.52 198H442.52ZM420.02 213C412.548 213 407.287 211.485 403.952 208.996C400.733 206.594 399.02 203.074 399.02 198.25H394.02C394.02 204.426 396.307 209.531 400.962 213.004C405.502 216.39 411.991 218 420.02 218V213ZM399.02 198.25C399.02 196.307 399.45 194.346 399.971 191.74L395.068 190.76C394.589 193.154 394.02 195.693 394.02 198.25H399.02ZM397.52 188.75H368.77V193.75H397.52V188.75ZM366.38 190.515C365.277 194.101 365.02 197.63 365.02 201H370.02C370.02 197.87 370.262 194.899 371.159 191.985L366.38 190.515ZM365.02 201C365.02 213.504 369.993 223.233 379.272 229.735C388.421 236.146 401.505 239.25 417.52 239.25V234.25C402.035 234.25 390.118 231.229 382.142 225.64C374.296 220.142 370.02 211.996 370.02 201H365.02ZM417.52 239.25C457.451 239.25 477.52 217.291 477.52 194.75H472.52C472.52 213.709 455.588 234.25 417.52 234.25V239.25ZM477.52 194.75C477.52 181.228 472.351 172.563 464.681 166.59C457.214 160.775 447.452 157.592 438.56 154.628L436.979 159.372C446.087 162.408 454.95 165.35 461.608 170.535C468.063 175.562 472.52 182.772 472.52 194.75H477.52ZM438.55 154.625C429.708 151.72 424.012 149.633 420.484 147.243C418.783 146.09 417.712 144.945 417.046 143.715C416.382 142.49 416.02 141 416.02 139H411.02C411.02 141.625 411.501 143.979 412.65 146.098C413.795 148.211 415.506 149.91 417.68 151.382C421.902 154.242 428.331 156.53 436.989 159.375L438.55 154.625ZM416.02 139C416.02 135.402 417.533 132.134 420.699 129.701C423.918 127.227 429.013 125.5 436.27 125.5V120.5C428.276 120.5 421.996 122.398 417.652 125.737C413.256 129.116 411.02 133.848 411.02 139H416.02ZM436.27 125.5C442.759 125.5 447.459 126.772 450.479 128.985C453.369 131.103 455.02 134.3 455.02 139H460.02C460.02 132.95 457.795 128.147 453.435 124.952C449.205 121.853 443.28 120.5 436.27 120.5V125.5ZM455.02 139C455.02 139.813 454.917 140.729 454.763 141.803C454.618 142.817 454.415 144.049 454.285 145.224L459.254 145.776C459.374 144.701 459.546 143.683 459.713 142.51C459.872 141.396 460.02 140.187 460.02 139H455.02ZM456.77 148H484.02V143H456.77V148ZM486.456 146.062C487.255 142.598 487.52 139.406 487.52 136.5H482.52C482.52 139.094 482.284 141.902 481.584 144.938L486.456 146.062ZM487.52 136.5C487.52 124.693 483.165 115.337 474.632 109.022C466.218 102.796 454.044 99.75 438.77 99.75V104.75C453.495 104.75 464.446 107.704 471.657 113.041C478.749 118.288 482.52 126.057 482.52 136.5H487.52ZM618.084 82.25V84.75H620.04L620.511 82.8511L618.084 82.25ZM624.834 55L627.261 55.6011L628.029 52.5H624.834V55ZM596.334 55V52.5H594.378L593.907 54.3989L596.334 55ZM589.584 82.25L587.157 81.6489L586.389 84.75H589.584V82.25ZM580.584 233V235.5H582.54L583.01 233.602L580.584 233ZM612.084 106L614.51 106.602L615.28 103.5H612.084V106ZM583.584 106V103.5H581.628L581.158 105.398L583.584 106ZM552.084 233L549.658 232.398L548.888 235.5H552.084V233ZM620.511 82.8511L627.261 55.6011L622.407 54.3989L615.657 81.6489L620.511 82.8511ZM624.834 52.5H596.334V57.5H624.834V52.5ZM593.907 54.3989L587.157 81.6489L592.011 82.8511L598.761 55.6011L593.907 54.3989ZM589.584 84.75H618.084V79.75H589.584V84.75ZM583.01 233.602L614.51 106.602L609.658 105.398L578.158 232.398L583.01 233.602ZM612.084 103.5H583.584V108.5H612.084V103.5ZM581.158 105.398L549.658 232.398L554.51 233.602L586.01 106.602L581.158 105.398ZM552.084 235.5H580.584V230.5H552.084V235.5ZM668.025 177.75L667.214 180.115L667.229 180.12L667.245 180.125L668.025 177.75ZM647.275 191.25L649.727 191.74L650.325 188.75H647.275V191.25ZM618.525 191.25V188.75H616.679L616.136 190.515L618.525 191.25ZM687.525 157L688.316 154.628L688.306 154.625L687.525 157ZM706.525 145.5L704.041 145.224L703.732 148H706.525V145.5ZM733.775 145.5V148H735.764L736.211 146.062L733.775 145.5ZM688.525 99.75C651.56 99.75 632.025 120.988 632.025 142.5H637.025C637.025 124.512 653.491 104.75 688.525 104.75V99.75ZM632.025 142.5C632.025 155.439 636.505 163.56 643.431 169.107C650.128 174.472 658.992 177.292 667.214 180.115L668.837 175.385C660.308 172.458 652.423 169.903 646.557 165.205C640.921 160.69 637.025 154.061 637.025 142.5H632.025ZM667.245 180.125C676.094 183.033 682.423 185.247 686.586 187.993C688.612 189.33 690 190.718 690.895 192.259C691.78 193.784 692.275 195.618 692.275 198H697.275C697.275 194.882 696.615 192.153 695.219 189.749C693.832 187.361 691.813 185.451 689.34 183.819C684.502 180.628 677.456 178.217 668.806 175.375L667.245 180.125ZM692.275 198C692.275 202.444 690.414 206.065 686.814 208.659C683.128 211.315 677.452 213 669.775 213V218C678.099 218 684.923 216.185 689.737 212.716C694.637 209.185 697.275 204.056 697.275 198H692.275ZM669.775 213C662.304 213 657.043 211.485 653.708 208.996C650.488 206.594 648.775 203.074 648.775 198.25H643.775C643.775 204.426 646.062 209.531 650.718 213.004C655.258 216.39 661.747 218 669.775 218V213ZM648.775 198.25C648.775 196.307 649.206 194.346 649.727 191.74L644.824 190.76C644.345 193.154 643.775 195.693 643.775 198.25H648.775ZM647.275 188.75H618.525V193.75H647.275V188.75ZM616.136 190.515C615.032 194.101 614.775 197.63 614.775 201H619.775C619.775 197.87 620.018 194.899 620.915 191.985L616.136 190.515ZM614.775 201C614.775 213.504 619.749 223.233 629.028 229.735C638.177 236.146 651.26 239.25 667.275 239.25V234.25C651.79 234.25 639.874 231.229 631.898 225.64C624.052 220.142 619.775 211.996 619.775 201H614.775ZM667.275 239.25C707.207 239.25 727.275 217.291 727.275 194.75H722.275C722.275 213.709 705.344 234.25 667.275 234.25V239.25ZM727.275 194.75C727.275 181.228 722.107 172.563 714.436 166.59C706.97 160.775 697.208 157.592 688.316 154.628L686.735 159.372C695.843 162.408 704.706 165.35 711.364 170.535C717.819 175.562 722.275 182.772 722.275 194.75H727.275ZM688.306 154.625C679.464 151.72 673.768 149.633 670.24 147.243C668.539 146.09 667.468 144.945 666.801 143.715C666.137 142.49 665.775 141 665.775 139H660.775C660.775 141.625 661.257 143.979 662.406 146.098C663.551 148.211 665.262 149.91 667.436 151.382C671.658 154.242 678.087 156.53 686.745 159.375L688.306 154.625ZM665.775 139C665.775 135.402 667.289 132.134 670.455 129.701C673.674 127.227 678.769 125.5 686.025 125.5V120.5C678.032 120.5 671.752 122.398 667.408 125.737C663.012 129.116 660.775 133.848 660.775 139H665.775ZM686.025 125.5C692.515 125.5 697.215 126.772 700.235 128.985C703.125 131.103 704.775 134.3 704.775 139H709.775C709.775 132.95 707.551 128.147 703.191 124.952C698.961 121.853 693.036 120.5 686.025 120.5V125.5ZM704.775 139C704.775 139.813 704.673 140.729 704.519 141.803C704.374 142.817 704.171 144.049 704.041 145.224L709.01 145.776C709.13 144.701 709.302 143.683 709.469 142.51C709.628 141.396 709.775 140.187 709.775 139H704.775ZM706.525 148H733.775V143H706.525V148ZM736.211 146.062C737.011 142.598 737.275 139.406 737.275 136.5H732.275C732.275 139.094 732.04 141.902 731.339 144.938L736.211 146.062ZM737.275 136.5C737.275 124.693 732.921 115.337 724.388 109.022C715.974 102.796 703.8 99.75 688.525 99.75V104.75C703.251 104.75 714.202 107.704 721.413 113.041C728.505 118.288 732.275 126.057 732.275 136.5H737.275ZM63.5 387.75V385.25H61.55L61.0752 387.141L63.5 387.75ZM88.25 387.75V390.25H90.2184L90.6802 388.337L88.25 387.75ZM93.5 366L95.9302 366.587L96.6752 363.5H93.5V366ZM68.75 366L66.3258 365.389L65.5419 368.5H68.75V366ZM76.75 334.25L79.1742 334.861L79.9581 331.75H76.75V334.25ZM48.25 334.25V331.75H46.2868L45.8213 333.657L48.25 334.25ZM40.5 366V368.5H42.4632L42.9287 366.593L40.5 366ZM19 366V363.5H17.0317L16.5698 365.413L19 366ZM13.75 387.75L11.3198 387.163L10.5748 390.25H13.75V387.75ZM35 387.75L37.4265 388.352L38.1955 385.25H35V387.75ZM20 448.25L22.414 448.9L22.4205 448.876L22.4265 448.852L20 448.25ZM63.25 493L63.8122 495.436L65.2997 495.093L65.6738 493.613L63.25 493ZM69 470.25L71.4238 470.863L72.4179 466.929L68.4577 467.81L69 470.25ZM48 449.5L45.5752 448.891L45.5605 448.95L45.5485 449.01L48 449.5ZM63.5 390.25H88.25V385.25H63.5V390.25ZM90.6802 388.337L95.9302 366.587L91.0698 365.413L85.8198 387.163L90.6802 388.337ZM93.5 363.5H68.75V368.5H93.5V363.5ZM71.1742 366.611L79.1742 334.861L74.3258 333.639L66.3258 365.389L71.1742 366.611ZM76.75 331.75H48.25V336.75H76.75V331.75ZM45.8213 333.657L38.0713 365.407L42.9287 366.593L50.6787 334.843L45.8213 333.657ZM40.5 363.5H19V368.5H40.5V363.5ZM16.5698 365.413L11.3198 387.163L16.1802 388.337L21.4302 366.587L16.5698 365.413ZM13.75 390.25H35V385.25H13.75V390.25ZM32.5735 387.148L17.5735 447.648L22.4265 448.852L37.4265 388.352L32.5735 387.148ZM17.586 447.6C15.7855 454.287 15 460.506 15 465.5H20C20 460.994 20.7145 455.213 22.414 448.9L17.586 447.6ZM15 465.5C15 476.153 17.7367 484.249 24.0034 489.59C30.1772 494.852 39.2818 497 51 497V492C39.7182 492 32.0729 489.898 27.2466 485.785C22.5133 481.751 20 475.347 20 465.5H15ZM51 497C54.9847 497 60.4281 496.217 63.8122 495.436L62.6879 490.564C59.5719 491.283 54.5153 492 51 492V497ZM65.6738 493.613L71.4238 470.863L66.5762 469.637L60.8262 492.387L65.6738 493.613ZM68.4577 467.81C66.3234 468.284 63.2632 468.75 60.5 468.75V473.75C63.7368 473.75 67.1766 473.216 69.5423 472.69L68.4577 467.81ZM60.5 468.75C55.9623 468.75 53.286 467.895 51.7234 466.506C50.2313 465.18 49.25 462.904 49.25 458.75H44.25C44.25 463.596 45.3937 467.57 48.4016 470.244C51.339 472.855 55.5377 473.75 60.5 473.75V468.75ZM49.25 458.75C49.25 456.528 49.6992 453.752 50.4515 449.99L45.5485 449.01C44.8008 452.748 44.25 455.972 44.25 458.75H49.25ZM50.4248 450.109L65.9248 388.359L61.0752 387.141L45.5752 448.891L50.4248 450.109ZM144.967 379L142.541 378.394L141.765 381.5H144.967V379ZM160.967 315L163.392 315.606L164.169 312.5H160.967V315ZM132.467 315V312.5H130.512L130.041 314.397L132.467 315ZM88.2168 493L85.7906 492.397L85.0192 495.5H88.2168V493ZM116.717 493V495.5H118.665L119.141 493.61L116.717 493ZM134.467 422.5L136.891 423.11L136.894 423.1L134.467 422.5ZM189.717 419.25L187.298 418.619L187.294 418.634L187.29 418.649L189.717 419.25ZM171.467 493L169.04 492.399L168.273 495.5H171.467V493ZM199.967 493V495.5H201.92L202.393 493.604L199.967 493ZM218.467 418.75L216.047 418.123L216.044 418.134L216.041 418.146L218.467 418.75ZM145.467 379V381.5H146.484L147.212 380.79L145.467 379ZM147.392 379.606L163.392 315.606L158.541 314.394L142.541 378.394L147.392 379.606ZM160.967 312.5H132.467V317.5H160.967V312.5ZM130.041 314.397L85.7906 492.397L90.643 493.603L134.893 315.603L130.041 314.397ZM88.2168 495.5H116.717V490.5H88.2168V495.5ZM119.141 493.61L136.891 423.11L132.042 421.89L114.292 492.39L119.141 493.61ZM136.894 423.1C142.695 399.655 157.659 388.5 172.467 388.5V383.5C154.775 383.5 138.239 396.845 132.04 421.9L136.894 423.1ZM172.467 388.5C178.219 388.5 182.322 389.91 184.98 392.39C187.607 394.842 189.217 398.711 189.217 404.5H194.217C194.217 397.789 192.327 392.408 188.391 388.735C184.487 385.09 178.964 383.5 172.467 383.5V388.5ZM189.217 404.5C189.217 408.537 188.744 413.075 187.298 418.619L192.136 419.881C193.69 413.925 194.217 408.963 194.217 404.5H189.217ZM187.29 418.649L169.04 492.399L173.894 493.601L192.144 419.851L187.29 418.649ZM171.467 495.5H199.967V490.5H171.467V495.5ZM202.393 493.604L220.893 419.354L216.041 418.146L197.541 492.396L202.393 493.604ZM220.887 419.377C222.687 412.435 223.467 405.974 223.467 400.25H218.467C218.467 405.526 217.747 411.565 216.047 418.123L220.887 419.377ZM223.467 400.25C223.467 387.502 219.682 377.464 212.503 370.627C205.345 363.809 195.151 360.5 182.967 360.5V365.5C194.283 365.5 203.089 368.566 209.055 374.248C215.002 379.911 218.467 388.498 218.467 400.25H223.467ZM182.967 360.5C167.715 360.5 154.112 367.079 143.722 377.21L147.212 380.79C156.822 371.421 169.218 365.5 182.967 365.5V360.5ZM145.467 376.5H144.967V381.5H145.467V376.5ZM362.189 435.25V437.75H364.178L364.625 435.812L362.189 435.25ZM355.689 454.75L358.005 455.692L359.405 452.25H355.689V454.75ZM326.689 454.75V452.25H325.01L324.375 453.805L326.689 454.75ZM269.439 435.25V432.75H267.322L266.973 434.839L269.439 435.25ZM338.439 416.5V419H340.722L340.929 416.726L338.439 416.5ZM273.939 416.5L271.565 415.718L270.483 419H273.939V416.5ZM364.625 435.812C366.909 425.915 367.689 418.724 367.689 412.25H362.689C362.689 418.276 361.97 425.085 359.753 434.688L364.625 435.812ZM367.689 412.25C367.689 396.67 363.306 383.473 354.264 374.164C345.209 364.842 331.804 359.75 314.439 359.75V364.75C330.825 364.75 342.795 369.533 350.677 377.648C358.573 385.777 362.689 397.58 362.689 412.25H367.689ZM314.439 359.75C289.284 359.75 270.279 371.909 257.638 388.517C245.042 405.065 238.689 426.103 238.689 444.25H243.689C243.689 427.147 249.712 407.185 261.616 391.545C273.475 375.966 291.095 364.75 314.439 364.75V359.75ZM238.689 444.25C238.689 460.8 243.119 474.62 252.313 484.314C261.528 494.03 275.197 499.25 292.939 499.25V494.25C276.182 494.25 263.976 489.345 255.941 480.873C247.885 472.38 243.689 459.95 243.689 444.25H238.689ZM292.939 499.25C324.311 499.25 348.413 479.283 358.005 455.692L353.374 453.808C344.466 475.717 322.068 494.25 292.939 494.25V499.25ZM355.689 452.25H326.689V457.25H355.689V452.25ZM324.375 453.805C319.758 465.116 308.673 473.25 294.439 473.25V478.25C310.706 478.25 323.621 468.884 329.004 455.695L324.375 453.805ZM294.439 473.25C287.245 473.25 281.396 471.308 277.345 467.339C273.307 463.383 270.689 457.05 270.689 447.5H265.689C265.689 457.95 268.572 465.742 273.846 470.911C279.108 476.067 286.384 478.25 294.439 478.25V473.25ZM270.689 447.5C270.689 443.958 271.162 440.119 271.905 435.661L266.973 434.839C266.216 439.381 265.689 443.542 265.689 447.5H270.689ZM269.439 437.75H362.189V432.75H269.439V437.75ZM312.689 385.75C320.136 385.75 326.016 387.757 330.016 391.485C333.988 395.187 336.439 400.894 336.439 409H341.439C341.439 399.856 338.641 392.688 333.425 387.827C328.238 382.993 320.993 380.75 312.689 380.75V385.75ZM336.439 409C336.439 411.108 336.205 413.469 335.95 416.274L340.929 416.726C341.174 414.031 341.439 411.392 341.439 409H336.439ZM338.439 414H273.939V419H338.439V414ZM276.314 417.282C283.314 396.041 297.525 385.75 312.689 385.75V380.75C294.854 380.75 279.065 392.959 271.565 415.718L276.314 417.282ZM560.188 435.25V437.75H562.176L562.623 435.812L560.188 435.25ZM553.688 454.75L556.003 455.692L557.403 452.25H553.688V454.75ZM524.688 454.75V452.25H523.008L522.373 453.805L524.688 454.75ZM467.438 435.25V432.75H465.32L464.972 434.839L467.438 435.25ZM536.438 416.5V419H538.721L538.927 416.726L536.438 416.5ZM471.938 416.5L469.563 415.718L468.481 419H471.938V416.5ZM562.623 435.812C564.907 425.915 565.688 418.724 565.688 412.25H560.688C560.688 418.276 559.968 425.085 557.752 434.688L562.623 435.812ZM565.688 412.25C565.688 396.67 561.304 383.473 552.262 374.164C543.207 364.842 529.802 359.75 512.438 359.75V364.75C528.823 364.75 540.793 369.533 548.675 377.648C556.571 385.777 560.688 397.58 560.688 412.25H565.688ZM512.438 359.75C487.282 359.75 468.277 371.909 455.636 388.517C443.04 405.065 436.688 426.103 436.688 444.25H441.688C441.688 427.147 447.71 407.185 459.614 391.545C471.473 375.966 489.093 364.75 512.438 364.75V359.75ZM436.688 444.25C436.688 460.8 441.117 474.62 450.311 484.314C459.526 494.03 473.195 499.25 490.938 499.25V494.25C474.18 494.25 461.974 489.345 453.939 480.873C445.883 472.38 441.688 459.95 441.688 444.25H436.688ZM490.938 499.25C522.309 499.25 546.411 479.283 556.003 455.692L551.372 453.808C542.464 475.717 520.066 494.25 490.938 494.25V499.25ZM553.688 452.25H524.688V457.25H553.688V452.25ZM522.373 453.805C517.756 465.116 506.671 473.25 492.438 473.25V478.25C508.704 478.25 521.619 468.884 527.002 455.695L522.373 453.805ZM492.438 473.25C485.243 473.25 479.394 471.308 475.343 467.339C471.305 463.383 468.688 457.05 468.688 447.5H463.688C463.688 457.95 466.57 465.742 471.844 470.911C477.106 476.067 484.382 478.25 492.438 478.25V473.25ZM468.688 447.5C468.688 443.958 469.161 440.119 469.903 435.661L464.972 434.839C464.214 439.381 463.688 443.542 463.688 447.5H468.688ZM467.438 437.75H560.188V432.75H467.438V437.75ZM510.688 385.75C518.134 385.75 524.014 387.757 528.014 391.485C531.986 395.187 534.438 400.894 534.438 409H539.438C539.438 399.856 536.639 392.688 531.423 387.827C526.236 382.993 518.991 380.75 510.688 380.75V385.75ZM534.438 409C534.438 411.108 534.203 413.469 533.948 416.274L538.927 416.726C539.172 414.031 539.438 411.392 539.438 409H534.438ZM536.438 414H471.938V419H536.438V414ZM474.312 417.282C481.312 396.041 495.523 385.75 510.688 385.75V380.75C492.852 380.75 477.063 392.959 469.563 415.718L474.312 417.282ZM629.068 380.5V383H630.104L630.836 382.268L629.068 380.5ZM628.568 380.5L626.148 379.874L625.34 383H628.568V380.5ZM632.318 366L634.739 366.626L635.547 363.5H632.318V366ZM605.318 366V363.5H603.366L602.893 365.394L605.318 366ZM573.568 493L571.143 492.394L570.366 495.5H573.568V493ZM602.068 493V495.5H604.017L604.493 493.61L602.068 493ZM619.818 422.5L622.243 423.11L622.245 423.1L619.818 422.5ZM675.068 419.25L672.649 418.619L672.645 418.634L672.642 418.649L675.068 419.25ZM656.818 493L654.392 492.399L653.624 495.5H656.818V493ZM685.318 493V495.5H687.272L687.744 493.604L685.318 493ZM703.818 418.75L701.398 418.123L701.395 418.134L701.393 418.146L703.818 418.75ZM668.318 360.5C652.517 360.5 638.162 367.871 627.301 378.732L630.836 382.268C640.975 372.129 654.12 365.5 668.318 365.5V360.5ZM629.068 378H628.568V383H629.068V378ZM630.989 381.126L634.739 366.626L629.898 365.374L626.148 379.874L630.989 381.126ZM632.318 363.5H605.318V368.5H632.318V363.5ZM602.893 365.394L571.143 492.394L575.994 493.606L607.744 366.606L602.893 365.394ZM573.568 495.5H602.068V490.5H573.568V495.5ZM604.493 493.61L622.243 423.11L617.394 421.89L599.644 492.39L604.493 493.61ZM622.245 423.1C628.046 399.655 643.01 388.5 657.818 388.5V383.5C640.126 383.5 623.591 396.845 617.392 421.9L622.245 423.1ZM657.818 388.5C663.571 388.5 667.674 389.91 670.331 392.39C672.958 394.842 674.568 398.711 674.568 404.5H679.568C679.568 397.789 677.678 392.408 673.743 388.735C669.838 385.09 664.316 383.5 657.818 383.5V388.5ZM674.568 404.5C674.568 408.537 674.096 413.075 672.649 418.619L677.487 419.881C679.041 413.925 679.568 408.963 679.568 404.5H674.568ZM672.642 418.649L654.392 492.399L659.245 493.601L677.495 419.851L672.642 418.649ZM656.818 495.5H685.318V490.5H656.818V495.5ZM687.744 493.604L706.244 419.354L701.393 418.146L682.893 492.396L687.744 493.604ZM706.238 419.377C708.038 412.435 708.818 405.974 708.818 400.25H703.818C703.818 405.526 703.098 411.565 701.398 418.123L706.238 419.377ZM708.818 400.25C708.818 387.515 705.103 377.473 697.953 370.631C690.821 363.806 680.622 360.5 668.318 360.5V365.5C679.765 365.5 688.566 368.569 694.496 374.244C700.409 379.902 703.818 388.485 703.818 400.25H708.818ZM830.291 493V495.5H832.243L832.716 493.606L830.291 493ZM874.791 315L877.216 315.606L877.993 312.5H874.791V315ZM846.291 315V312.5H844.332L843.864 314.402L846.291 315ZM829.041 385V387.5H831L831.468 385.598L829.041 385ZM828.541 385L826.192 385.854L826.79 387.5H828.541V385ZM805.291 480.25V477.75H804.237L803.501 478.505L805.291 480.25ZM805.791 480.25L808.214 480.867L809.008 477.75H805.791V480.25ZM802.541 493L800.118 492.382L799.324 495.5H802.541V493ZM832.716 493.606L877.216 315.606L872.366 314.394L827.866 492.394L832.716 493.606ZM874.791 312.5H846.291V317.5H874.791V312.5ZM843.864 314.402L826.614 384.402L831.468 385.598L848.718 315.598L843.864 314.402ZM829.041 382.5H828.541V387.5H829.041V382.5ZM830.891 384.146C825.475 369.254 811.668 360.5 794.041 360.5V365.5C809.914 365.5 821.607 373.246 826.192 385.854L830.891 384.146ZM794.041 360.5C770.766 360.5 753.012 373.153 741.176 390.166C729.371 407.136 723.291 428.639 723.291 447H728.291C728.291 429.611 734.086 409.114 745.281 393.021C756.445 376.972 772.816 365.5 794.041 365.5V360.5ZM723.291 447C723.291 462.775 727.331 475.746 735.288 484.806C743.285 493.912 754.962 498.75 769.541 498.75V493.75C756.12 493.75 745.922 489.338 739.044 481.507C732.126 473.629 728.291 461.975 728.291 447H723.291ZM769.541 498.75C783.046 498.75 796.92 492.417 807.081 481.995L803.501 478.505C794.162 488.083 781.536 493.75 769.541 493.75V498.75ZM805.291 482.75H805.791V477.75H805.291V482.75ZM803.368 479.632L800.118 492.382L804.964 493.618L808.214 480.867L803.368 479.632ZM802.541 495.5H830.291V490.5H802.541V495.5ZM796.791 387.5C803.691 387.5 808.787 390.113 812.245 394.823C815.783 399.643 817.791 406.921 817.791 416.5H822.791C822.791 406.329 820.674 397.857 816.275 391.864C811.795 385.761 805.141 382.5 796.791 382.5V387.5ZM817.791 416.5C817.791 428.341 814.393 442.26 807.808 453.143C801.231 464.015 791.733 471.5 779.541 471.5V476.5C794.099 476.5 804.976 467.485 812.086 455.732C819.19 443.99 822.791 429.159 822.791 416.5H817.791ZM779.541 471.5C772.64 471.5 767.541 468.885 764.083 464.203C760.547 459.413 758.541 452.198 758.541 442.75H753.541C753.541 452.802 755.66 461.212 760.061 467.172C764.541 473.24 771.192 476.5 779.541 476.5V471.5ZM758.541 442.75C758.541 430.908 761.94 416.925 768.527 405.976C775.108 395.037 784.607 387.5 796.791 387.5V382.5C782.225 382.5 771.349 391.588 764.243 403.399C757.142 415.2 753.541 430.092 753.541 442.75H758.541ZM82.5 619.75C57.6221 619.75 38.8057 631.445 26.2764 647.559C13.7941 663.612 7.5 684.096 7.5 702H12.5C12.5 685.154 18.4559 665.763 30.2236 650.628C41.9443 635.555 59.3779 624.75 82.5 624.75V619.75ZM7.5 702C7.5 719.565 12.3128 733.947 21.8812 743.947C31.4658 753.964 45.5008 759.25 63.25 759.25V754.25C46.4992 754.25 33.9092 749.286 25.4938 740.49C17.0622 731.678 12.5 718.685 12.5 702H7.5ZM63.25 759.25C88.3673 759.25 107.37 747.564 120.028 731.451C132.639 715.397 139 694.91 139 677H134C134 693.84 127.986 713.228 116.097 728.362C104.255 743.436 86.6327 754.25 63.25 754.25V759.25ZM139 677C139 659.426 134.12 645.04 124.419 635.041C114.707 625.029 100.489 619.75 82.5 619.75V624.75C99.5111 624.75 112.293 629.721 120.831 638.522C129.38 647.335 134 660.324 134 677H139ZM80.5 647.25C88.63 647.25 94.4797 650.006 98.3625 654.846C102.316 659.773 104.5 667.198 104.5 677H109.5C109.5 666.552 107.184 657.852 102.263 651.717C97.2703 645.494 89.87 642.25 80.5 642.25V647.25ZM104.5 677C104.5 687.979 101.345 701.842 94.8168 712.884C88.3037 723.899 78.6844 731.75 65.75 731.75V736.75C81.0656 736.75 92.0713 727.351 99.1207 715.429C106.155 703.533 109.5 688.771 109.5 677H104.5ZM65.75 731.75C57.4859 731.75 51.6447 728.988 47.7992 724.161C43.8783 719.239 41.75 711.817 41.75 702H36.75C36.75 712.433 38.9967 721.136 43.8884 727.276C48.8553 733.512 56.2641 736.75 65.75 736.75V731.75ZM41.75 702C41.75 691.013 44.8459 677.149 51.342 666.112C57.8194 655.106 67.4359 647.25 80.5 647.25V642.25C65.0641 642.25 54.0556 651.644 47.033 663.576C40.0291 675.476 36.75 690.237 36.75 702H41.75ZM188.566 610L190.992 610.606L190.994 610.598L190.996 610.589L188.566 610ZM184.566 626V628.5H186.518L186.992 626.606L184.566 626ZM162.816 626V623.5H160.87L160.393 625.387L162.816 626ZM157.316 647.75L154.893 647.137L154.106 650.25H157.316V647.75ZM179.066 647.75L181.492 648.355L182.267 645.25H179.066V647.75ZM152.816 753L150.391 752.395L149.616 755.5H152.816V753ZM181.066 753V755.5H183.019L183.492 753.605L181.066 753ZM207.316 647.75V645.25H205.363L204.891 647.145L207.316 647.75ZM231.566 647.75V650.25H233.513L233.99 648.363L231.566 647.75ZM237.066 626L239.49 626.613L240.277 623.5H237.066V626ZM212.816 626L210.383 625.427L209.66 628.5H212.816V626ZM214.816 617.5L212.387 616.911L212.385 616.919L212.383 616.927L214.816 617.5ZM245.316 596L244.526 598.372L247.072 599.221L247.738 596.62L245.316 596ZM250.566 575.5L252.988 576.12L253.577 573.822L251.312 573.114L250.566 575.5ZM234.566 570.75C222.267 570.75 211.685 573.863 203.369 580.375C195.051 586.89 189.238 596.618 186.137 609.411L190.996 610.589C193.895 598.632 199.207 589.985 206.452 584.312C213.698 578.637 223.116 575.75 234.566 575.75V570.75ZM186.141 609.394L182.141 625.394L186.992 626.606L190.992 610.606L186.141 609.394ZM184.566 623.5H162.816V628.5H184.566V623.5ZM160.393 625.387L154.893 647.137L159.74 648.363L165.24 626.613L160.393 625.387ZM157.316 650.25H179.066V645.25H157.316V650.25ZM176.641 647.145L150.391 752.395L155.242 753.605L181.492 648.355L176.641 647.145ZM152.816 755.5H181.066V750.5H152.816V755.5ZM183.492 753.605L209.742 648.355L204.891 647.145L178.641 752.395L183.492 753.605ZM207.316 650.25H231.566V645.25H207.316V650.25ZM233.99 648.363L239.49 626.613L234.643 625.387L229.143 647.137L233.99 648.363ZM237.066 623.5H212.816V628.5H237.066V623.5ZM215.25 626.573L217.25 618.073L212.383 616.927L210.383 625.427L215.25 626.573ZM217.246 618.089C219.185 610.09 221.948 605.019 225.417 601.929C228.829 598.89 233.231 597.5 239.066 597.5V592.5C232.402 592.5 226.679 594.11 222.091 598.196C217.56 602.231 214.448 608.41 212.387 616.911L217.246 618.089ZM239.066 597.5C241.018 597.5 243.251 597.947 244.526 598.372L246.107 593.628C244.381 593.053 241.614 592.5 239.066 592.5V597.5ZM247.738 596.62L252.988 576.12L248.145 574.88L242.895 595.38L247.738 596.62ZM251.312 573.114C247.051 571.782 240.547 570.75 234.566 570.75V575.75C240.086 575.75 246.082 576.718 249.821 577.886L251.312 573.114ZM344.994 647.75V645.25H343.044L342.569 647.141L344.994 647.75ZM369.744 647.75V650.25H371.712L372.174 648.337L369.744 647.75ZM374.994 626L377.424 626.587L378.169 623.5H374.994V626ZM350.244 626L347.82 625.389L347.036 628.5H350.244V626ZM358.244 594.25L360.668 594.861L361.452 591.75H358.244V594.25ZM329.744 594.25V591.75H327.781L327.315 593.657L329.744 594.25ZM321.994 626V628.5H323.957L324.423 626.593L321.994 626ZM300.494 626V623.5H298.526L298.064 625.413L300.494 626ZM295.244 647.75L292.814 647.163L292.069 650.25H295.244V647.75ZM316.494 647.75L318.921 648.352L319.69 645.25H316.494V647.75ZM301.494 708.25L303.908 708.9L303.915 708.876L303.921 708.852L301.494 708.25ZM344.744 753L345.306 755.436L346.794 755.093L347.168 753.613L344.744 753ZM350.494 730.25L352.918 730.863L353.912 726.93L349.952 727.81L350.494 730.25ZM329.494 709.5L327.069 708.891L327.055 708.95L327.043 709.01L329.494 709.5ZM344.994 650.25H369.744V645.25H344.994V650.25ZM372.174 648.337L377.424 626.587L372.564 625.413L367.314 647.163L372.174 648.337ZM374.994 623.5H350.244V628.5H374.994V623.5ZM352.668 626.611L360.668 594.861L355.82 593.639L347.82 625.389L352.668 626.611ZM358.244 591.75H329.744V596.75H358.244V591.75ZM327.315 593.657L319.565 625.407L324.423 626.593L332.173 594.843L327.315 593.657ZM321.994 623.5H300.494V628.5H321.994V623.5ZM298.064 625.413L292.814 647.163L297.674 648.337L302.924 626.587L298.064 625.413ZM295.244 650.25H316.494V645.25H295.244V650.25ZM314.068 647.148L299.068 707.648L303.921 708.852L318.921 648.352L314.068 647.148ZM299.08 707.6C297.28 714.287 296.494 720.506 296.494 725.5H301.494C301.494 720.994 302.209 715.213 303.908 708.9L299.08 707.6ZM296.494 725.5C296.494 736.153 299.231 744.249 305.497 749.59C311.671 754.852 320.776 757 332.494 757V752C321.212 752 313.567 749.898 308.741 745.785C304.007 741.751 301.494 735.347 301.494 725.5H296.494ZM332.494 757C336.479 757 341.922 756.217 345.306 755.436L344.182 750.564C341.066 751.283 336.009 752 332.494 752V757ZM347.168 753.613L352.918 730.863L348.07 729.637L342.32 752.387L347.168 753.613ZM349.952 727.81C347.818 728.284 344.757 728.75 341.994 728.75V733.75C345.231 733.75 348.671 733.216 351.036 732.69L349.952 727.81ZM341.994 728.75C337.456 728.75 334.78 727.895 333.218 726.506C331.725 725.18 330.744 722.904 330.744 718.75H325.744C325.744 723.596 326.888 727.57 329.896 730.244C332.833 732.855 337.032 733.75 341.994 733.75V728.75ZM330.744 718.75C330.744 716.528 331.193 713.752 331.946 709.99L327.043 709.01C326.295 712.748 325.744 715.972 325.744 718.75H330.744ZM331.919 710.109L347.419 648.359L342.569 647.141L327.069 708.891L331.919 710.109ZM426.461 639L424.036 638.394L423.259 641.5H426.461V639ZM442.461 575L444.886 575.606L445.663 572.5H442.461V575ZM413.961 575V572.5H412.006L411.535 574.397L413.961 575ZM369.711 753L367.285 752.397L366.513 755.5H369.711V753ZM398.211 753V755.5H400.16L400.635 753.61L398.211 753ZM415.961 682.5L418.385 683.11L418.388 683.1L415.961 682.5ZM471.211 679.25L468.792 678.619L468.788 678.634L468.784 678.649L471.211 679.25ZM452.961 753L450.534 752.399L449.767 755.5H452.961V753ZM481.461 753V755.5H483.414L483.887 753.604L481.461 753ZM499.961 678.75L497.541 678.123L497.538 678.134L497.535 678.146L499.961 678.75ZM426.961 639V641.5H427.978L428.706 640.79L426.961 639ZM428.886 639.606L444.886 575.606L440.036 574.394L424.036 638.394L428.886 639.606ZM442.461 572.5H413.961V577.5H442.461V572.5ZM411.535 574.397L367.285 752.397L372.137 753.603L416.387 575.603L411.535 574.397ZM369.711 755.5H398.211V750.5H369.711V755.5ZM400.635 753.61L418.385 683.11L413.537 681.89L395.787 752.39L400.635 753.61ZM418.388 683.1C424.189 659.655 439.153 648.5 453.961 648.5V643.5C436.269 643.5 419.733 656.845 413.534 681.9L418.388 683.1ZM453.961 648.5C459.713 648.5 463.816 649.91 466.474 652.39C469.101 654.842 470.711 658.711 470.711 664.5H475.711C475.711 657.789 473.821 652.408 469.885 648.735C465.981 645.09 460.459 643.5 453.961 643.5V648.5ZM470.711 664.5C470.711 668.537 470.238 673.075 468.792 678.619L473.63 679.881C475.184 673.925 475.711 668.963 475.711 664.5H470.711ZM468.784 678.649L450.534 752.399L455.388 753.601L473.638 679.851L468.784 678.649ZM452.961 755.5H481.461V750.5H452.961V755.5ZM483.887 753.604L502.387 679.354L497.535 678.146L479.035 752.396L483.887 753.604ZM502.381 679.377C504.181 672.435 504.961 665.974 504.961 660.25H499.961C499.961 665.526 499.241 671.565 497.541 678.123L502.381 679.377ZM504.961 660.25C504.961 647.502 501.176 637.464 493.998 630.627C486.839 623.809 476.645 620.5 464.461 620.5V625.5C475.777 625.5 484.583 628.566 490.549 634.248C496.496 639.911 499.961 648.498 499.961 660.25H504.961ZM464.461 620.5C449.209 620.5 435.606 627.079 425.216 637.21L428.706 640.79C438.316 631.421 450.712 625.5 464.461 625.5V620.5ZM426.961 636.5H426.461V641.5H426.961V636.5ZM643.684 695.25V697.75H645.672L646.12 695.812L643.684 695.25ZM637.184 714.75L639.5 715.692L640.899 712.25H637.184V714.75ZM608.184 714.75V712.25H606.504L605.869 713.805L608.184 714.75ZM550.934 695.25V692.75H548.816L548.468 694.839L550.934 695.25ZM619.934 676.5V679H622.217L622.423 676.726L619.934 676.5ZM555.434 676.5L553.059 675.718L551.977 679H555.434V676.5ZM646.12 695.812C648.403 685.915 649.184 678.724 649.184 672.25H644.184C644.184 678.276 643.464 685.085 641.248 694.688L646.12 695.812ZM649.184 672.25C649.184 656.67 644.8 643.473 635.758 634.164C626.703 624.842 613.298 619.75 595.934 619.75V624.75C612.319 624.75 624.289 629.533 632.172 637.648C640.067 645.777 644.184 657.58 644.184 672.25H649.184ZM595.934 619.75C570.778 619.75 551.773 631.909 539.132 648.517C526.536 665.065 520.184 686.103 520.184 704.25H525.184C525.184 687.147 531.206 667.185 543.11 651.545C554.969 635.966 572.589 624.75 595.934 624.75V619.75ZM520.184 704.25C520.184 720.8 524.613 734.62 533.807 744.314C543.023 754.03 556.691 759.25 574.434 759.25V754.25C557.676 754.25 545.47 749.345 537.435 740.873C529.379 732.38 525.184 719.95 525.184 704.25H520.184ZM574.434 759.25C605.805 759.25 629.907 739.283 639.5 715.692L634.868 713.808C625.96 735.717 603.562 754.25 574.434 754.25V759.25ZM637.184 712.25H608.184V717.25H637.184V712.25ZM605.869 713.805C601.252 725.116 590.167 733.25 575.934 733.25V738.25C592.201 738.25 605.115 728.884 610.498 715.695L605.869 713.805ZM575.934 733.25C568.739 733.25 562.89 731.308 558.84 727.339C554.801 723.383 552.184 717.05 552.184 707.5H547.184C547.184 717.95 550.066 725.742 555.34 730.911C560.602 736.067 567.878 738.25 575.934 738.25V733.25ZM552.184 707.5C552.184 703.958 552.657 700.119 553.4 695.661L548.468 694.839C547.711 699.381 547.184 703.542 547.184 707.5H552.184ZM550.934 697.75H643.684V692.75H550.934V697.75ZM594.184 645.75C601.63 645.75 607.51 647.757 611.51 651.485C615.482 655.187 617.934 660.894 617.934 669H622.934C622.934 659.856 620.135 652.688 614.919 647.827C609.732 642.993 602.487 640.75 594.184 640.75V645.75ZM617.934 669C617.934 671.108 617.699 673.469 617.444 676.274L622.423 676.726C622.668 674.031 622.934 671.392 622.934 669H617.934ZM619.934 674H555.434V679H619.934V674ZM557.808 677.282C564.808 656.041 579.019 645.75 594.184 645.75V640.75C576.348 640.75 560.559 652.959 553.059 675.718L557.808 677.282ZM32 1013V1015.5H33.9546L34.4262 1013.6L32 1013ZM76.25 835L78.6762 835.603L79.4476 832.5H76.25V835ZM47.75 835V832.5H45.7954L45.3238 834.397L47.75 835ZM3.5 1013L1.07384 1012.4L0.30242 1015.5H3.5V1013ZM34.4262 1013.6L78.6762 835.603L73.8239 834.397L29.5738 1012.4L34.4262 1013.6ZM76.25 832.5H47.75V837.5H76.25V832.5ZM45.3238 834.397L1.07384 1012.4L5.92616 1013.6L50.1762 835.603L45.3238 834.397ZM3.5 1015.5H32V1010.5H3.5V1015.5ZM134.441 862.25V864.75H136.398L136.868 862.851L134.441 862.25ZM141.191 835L143.618 835.601L144.386 832.5H141.191V835ZM112.691 835V832.5H110.735L110.265 834.399L112.691 835ZM105.941 862.25L103.515 861.649L102.747 864.75H105.941V862.25ZM96.9414 1013V1015.5H98.8971L99.3679 1013.6L96.9414 1013ZM128.441 886L130.868 886.602L131.637 883.5H128.441V886ZM99.9414 886V883.5H97.9857L97.5149 885.398L99.9414 886ZM68.4414 1013L66.0149 1012.4L65.2456 1015.5H68.4414V1013ZM136.868 862.851L143.618 835.601L138.765 834.399L132.015 861.649L136.868 862.851ZM141.191 832.5H112.691V837.5H141.191V832.5ZM110.265 834.399L103.515 861.649L108.368 862.851L115.118 835.601L110.265 834.399ZM105.941 864.75H134.441V859.75H105.941V864.75ZM99.3679 1013.6L130.868 886.602L126.015 885.398L94.5149 1012.4L99.3679 1013.6ZM128.441 883.5H99.9414V888.5H128.441V883.5ZM97.5149 885.398L66.0149 1012.4L70.8679 1013.6L102.368 886.602L97.5149 885.398ZM68.4414 1015.5H96.9414V1010.5H68.4414V1015.5ZM188.883 900.5V903H189.918L190.651 902.268L188.883 900.5ZM188.383 900.5L185.962 899.874L185.154 903H188.383V900.5ZM192.133 886L194.553 886.626L195.362 883.5H192.133V886ZM165.133 886V883.5H163.181L162.707 885.394L165.133 886ZM133.383 1013L130.957 1012.39L130.181 1015.5H133.383V1013ZM161.883 1013V1015.5H163.831L164.307 1013.61L161.883 1013ZM179.633 942.5L182.057 943.11L182.06 943.1L179.633 942.5ZM234.883 939.25L232.464 938.619L232.46 938.634L232.456 938.649L234.883 939.25ZM216.633 1013L214.206 1012.4L213.439 1015.5H216.633V1013ZM245.133 1013V1015.5H247.086L247.559 1013.6L245.133 1013ZM263.633 938.75L261.213 938.123L261.21 938.134L261.207 938.146L263.633 938.75ZM228.133 880.5C212.331 880.5 197.976 887.871 187.115 898.732L190.651 902.268C200.79 892.129 213.934 885.5 228.133 885.5V880.5ZM188.883 898H188.383V903H188.883V898ZM190.803 901.126L194.553 886.626L189.712 885.374L185.962 899.874L190.803 901.126ZM192.133 883.5H165.133V888.5H192.133V883.5ZM162.707 885.394L130.957 1012.39L135.808 1013.61L167.558 886.606L162.707 885.394ZM133.383 1015.5H161.883V1010.5H133.383V1015.5ZM164.307 1013.61L182.057 943.11L177.208 941.89L159.458 1012.39L164.307 1013.61ZM182.06 943.1C187.861 919.655 202.825 908.5 217.633 908.5V903.5C199.941 903.5 183.405 916.845 177.206 941.9L182.06 943.1ZM217.633 908.5C223.385 908.5 227.488 909.91 230.146 912.39C232.773 914.842 234.383 918.711 234.383 924.5H239.383C239.383 917.789 237.493 912.408 233.557 908.735C229.653 905.09 224.13 903.5 217.633 903.5V908.5ZM234.383 924.5C234.383 928.537 233.91 933.075 232.464 938.619L237.302 939.881C238.856 933.925 239.383 928.963 239.383 924.5H234.383ZM232.456 938.649L214.206 1012.4L219.06 1013.6L237.31 939.851L232.456 938.649ZM216.633 1015.5H245.133V1010.5H216.633V1015.5ZM247.559 1013.6L266.059 939.354L261.207 938.146L242.707 1012.4L247.559 1013.6ZM266.053 939.377C267.853 932.435 268.633 925.974 268.633 920.25H263.633C263.633 925.526 262.913 931.565 261.213 938.123L266.053 939.377ZM268.633 920.25C268.633 907.515 264.918 897.473 257.768 890.631C250.635 883.806 240.436 880.5 228.133 880.5V885.5C239.58 885.5 248.38 888.569 254.311 894.244C260.223 899.901 263.633 908.485 263.633 920.25H268.633ZM407.355 955.25V957.75H409.344L409.791 955.812L407.355 955.25ZM400.855 974.75L403.171 975.692L404.571 972.25H400.855V974.75ZM371.855 974.75V972.25H370.176L369.541 973.805L371.855 974.75ZM314.605 955.25V952.75H312.488L312.139 954.839L314.605 955.25ZM383.605 936.5V939H385.888L386.095 936.726L383.605 936.5ZM319.105 936.5L316.731 935.718L315.649 939H319.105V936.5ZM409.791 955.812C412.075 945.915 412.855 938.724 412.855 932.25H407.855C407.855 938.276 407.136 945.085 404.919 954.688L409.791 955.812ZM412.855 932.25C412.855 916.67 408.472 903.473 399.43 894.164C390.375 884.842 376.97 879.75 359.605 879.75V884.75C375.991 884.75 387.961 889.533 395.843 897.648C403.739 905.777 407.855 917.58 407.855 932.25H412.855ZM359.605 879.75C334.45 879.75 315.445 891.909 302.804 908.517C290.208 925.065 283.855 946.103 283.855 964.25H288.855C288.855 947.147 294.878 927.185 306.782 911.545C318.641 895.966 336.261 884.75 359.605 884.75V879.75ZM283.855 964.25C283.855 980.8 288.285 994.62 297.479 1004.31C306.694 1014.03 320.363 1019.25 338.105 1019.25V1014.25C321.348 1014.25 309.142 1009.34 301.107 1000.87C293.051 992.38 288.855 979.95 288.855 964.25H283.855ZM338.105 1019.25C369.477 1019.25 393.579 999.283 403.171 975.692L398.54 973.808C389.632 995.717 367.234 1014.25 338.105 1014.25V1019.25ZM400.855 972.25H371.855V977.25H400.855V972.25ZM369.541 973.805C364.924 985.116 353.839 993.25 339.605 993.25V998.25C355.872 998.25 368.787 988.884 374.17 975.695L369.541 973.805ZM339.605 993.25C332.411 993.25 326.562 991.308 322.511 987.339C318.473 983.383 315.855 977.05 315.855 967.5H310.855C310.855 977.95 313.738 985.742 319.012 990.911C324.274 996.067 331.55 998.25 339.605 998.25V993.25ZM315.855 967.5C315.855 963.958 316.328 960.119 317.071 955.661L312.139 954.839C311.382 959.381 310.855 963.542 310.855 967.5H315.855ZM314.605 957.75H407.355V952.75H314.605V957.75ZM357.855 905.75C365.302 905.75 371.182 907.757 375.182 911.485C379.154 915.187 381.605 920.894 381.605 929H386.605C386.605 919.856 383.807 912.688 378.591 907.827C373.404 902.993 366.159 900.75 357.855 900.75V905.75ZM381.605 929C381.605 931.108 381.371 933.469 381.116 936.274L386.095 936.726C386.34 934.031 386.605 931.392 386.605 929H381.605ZM383.605 934H319.105V939H383.605V934ZM321.48 937.282C328.48 916.041 342.691 905.75 357.855 905.75V900.75C340.02 900.75 324.231 912.959 316.731 935.718L321.48 937.282Z" fill="black"/>
<path d="M172.25 144L178.75 118H32L25.5 144H84L46.25 296H76L114 144H172.25ZM212.105 182L228.105 118H199.605L155.355 296H183.855L201.605 225.5C207.605 201.25 223.355 189 239.605 189C251.855 189 258.855 195 258.855 207.5C258.855 211.75 258.355 216.5 256.855 222.25L238.605 296H267.105L285.605 221.75C287.355 215 288.105 208.75 288.105 203.25C288.105 178.75 273.605 166 250.105 166C235.605 166 222.605 172.25 212.605 182H212.105ZM368.328 145.25L375.078 118H346.578L339.828 145.25H368.328ZM330.828 296L362.328 169H333.828L302.328 296H330.828ZM438.77 165.25C402.77 165.25 384.77 185.75 384.77 205.5C384.77 230 401.52 235 418.27 240.75C435.77 246.5 445.02 250 445.02 261C445.02 271.5 436.02 278.5 420.02 278.5C404.52 278.5 396.52 272.25 396.52 261.25C396.52 259 397.02 256.75 397.52 254.25H368.77C367.77 257.5 367.52 260.75 367.52 264C367.52 287.5 386.02 299.75 417.52 299.75C456.52 299.75 475.02 278.5 475.02 257.75C475.02 232.25 455.77 226 437.77 220C420.27 214.25 413.52 211.25 413.52 202C413.52 193.25 421.02 186 436.27 186C449.77 186 457.52 191.25 457.52 202C457.52 204 457.02 206.25 456.77 208.5H484.02C484.77 205.25 485.02 202.25 485.02 199.5C485.02 177.25 468.77 165.25 438.77 165.25ZM618.084 145.25L624.834 118H596.334L589.584 145.25H618.084ZM580.584 296L612.084 169H583.584L552.084 296H580.584ZM688.525 165.25C652.525 165.25 634.525 185.75 634.525 205.5C634.525 230 651.275 235 668.025 240.75C685.525 246.5 694.775 250 694.775 261C694.775 271.5 685.775 278.5 669.775 278.5C654.275 278.5 646.275 272.25 646.275 261.25C646.275 259 646.775 256.75 647.275 254.25H618.525C617.525 257.5 617.275 260.75 617.275 264C617.275 287.5 635.775 299.75 667.275 299.75C706.275 299.75 724.775 278.5 724.775 257.75C724.775 232.25 705.525 226 687.525 220C670.025 214.25 663.275 211.25 663.275 202C663.275 193.25 670.775 186 686.025 186C699.525 186 707.275 191.25 707.275 202C707.275 204 706.775 206.25 706.525 208.5H733.775C734.525 205.25 734.775 202.25 734.775 199.5C734.775 177.25 718.525 165.25 688.525 165.25ZM63.5 450.75H88.25L93.5 429H68.75L76.75 397.25H48.25L40.5 429H19L13.75 450.75H35L20 511.25C18.25 517.75 17.5 523.75 17.5 528.5C17.5 549 28 557.5 51 557.5C54.75 557.5 60 556.75 63.25 556L69 533.25C66.75 533.75 63.5 534.25 60.5 534.25C51 534.25 46.75 530.75 46.75 521.75C46.75 519.25 47.25 516.25 48 512.5L63.5 450.75ZM144.967 442L160.967 378H132.467L88.2168 556H116.717L134.467 485.5C140.467 461.25 156.217 449 172.467 449C184.717 449 191.717 455 191.717 467.5C191.717 471.75 191.217 476.5 189.717 482.25L171.467 556H199.967L218.467 481.75C220.217 475 220.967 468.75 220.967 463.25C220.967 438.75 206.467 426 182.967 426C168.467 426 155.467 432.25 145.467 442H144.967ZM362.189 498.25C364.439 488.5 365.189 481.5 365.189 475.25C365.189 445 348.189 425.25 314.439 425.25C265.939 425.25 241.189 472 241.189 507.25C241.189 539.5 258.439 559.75 292.939 559.75C323.189 559.75 346.439 540.5 355.689 517.75H326.689C321.689 530 309.689 538.75 294.439 538.75C279.189 538.75 268.189 530.5 268.189 510.5C268.189 506.75 268.689 502.75 269.439 498.25H362.189ZM312.689 446.25C328.439 446.25 338.939 454.75 338.939 472C338.939 474.25 338.689 476.75 338.439 479.5H273.939C281.189 457.5 296.189 446.25 312.689 446.25ZM560.188 498.25C562.438 488.5 563.188 481.5 563.188 475.25C563.188 445 546.188 425.25 512.438 425.25C463.938 425.25 439.188 472 439.188 507.25C439.188 539.5 456.438 559.75 490.938 559.75C521.188 559.75 544.438 540.5 553.688 517.75H524.688C519.688 530 507.688 538.75 492.438 538.75C477.188 538.75 466.188 530.5 466.188 510.5C466.188 506.75 466.688 502.75 467.437 498.25H560.188ZM510.688 446.25C526.438 446.25 536.938 454.75 536.938 472C536.938 474.25 536.688 476.75 536.438 479.5H471.938C479.188 457.5 494.188 446.25 510.688 446.25ZM668.318 426C653.318 426 639.568 433 629.068 443.5H628.568L632.318 429H605.318L573.568 556H602.068L619.818 485.5C625.818 461.25 641.568 449 657.818 449C670.068 449 677.068 455 677.068 467.5C677.068 471.75 676.568 476.5 675.068 482.25L656.818 556H685.318L703.818 481.75C705.568 475 706.318 468.75 706.318 463.25C706.318 438.75 692.068 426 668.318 426ZM830.291 556L874.791 378H846.291L829.041 448H828.541C823.541 434.25 810.791 426 794.041 426C749.541 426 725.791 474.25 725.791 510C725.791 540.75 741.541 559.25 769.541 559.25C782.291 559.25 795.541 553.25 805.291 543.25H805.791L802.541 556H830.291ZM796.791 448C812.041 448 820.291 459.75 820.291 479.5C820.291 504 806.291 537 779.541 537C764.291 537 756.041 525.25 756.041 505.75C756.041 481.25 770.041 448 796.791 448ZM82.5 685.25C34.5 685.25 10 730.25 10 765C10 799.25 28.75 819.75 63.25 819.75C111.75 819.75 136.5 774.75 136.5 740C136.5 705.75 117.5 685.25 82.5 685.25ZM80.5 707.75C98 707.75 107 719.75 107 740C107 762.75 94 797.25 65.75 797.25C48 797.25 39.25 785.25 39.25 765C39.25 742.25 52 707.75 80.5 707.75ZM234.566 636.25C210.816 636.25 194.566 648.25 188.566 673L184.566 689H162.816L157.316 710.75H179.066L152.816 816H181.066L207.316 710.75H231.566L237.066 689H212.816L214.816 680.5C218.816 664 226.566 658 239.066 658C241.316 658 243.816 658.5 245.316 659L250.566 638.5C246.566 637.25 240.316 636.25 234.566 636.25ZM344.994 710.75H369.744L374.994 689H350.244L358.244 657.25H329.744L321.994 689H300.494L295.244 710.75H316.494L301.494 771.25C299.744 777.75 298.994 783.75 298.994 788.5C298.994 809 309.494 817.5 332.494 817.5C336.244 817.5 341.494 816.75 344.744 816L350.494 793.25C348.244 793.75 344.994 794.25 341.994 794.25C332.494 794.25 328.244 790.75 328.244 781.75C328.244 779.25 328.744 776.25 329.494 772.5L344.994 710.75ZM426.461 702L442.461 638H413.961L369.711 816H398.211L415.961 745.5C421.961 721.25 437.711 709 453.961 709C466.211 709 473.211 715 473.211 727.5C473.211 731.75 472.711 736.5 471.211 742.25L452.961 816H481.461L499.961 741.75C501.711 735 502.461 728.75 502.461 723.25C502.461 698.75 487.961 686 464.461 686C449.961 686 436.961 692.25 426.961 702H426.461ZM643.684 758.25C645.934 748.5 646.684 741.5 646.684 735.25C646.684 705 629.684 685.25 595.934 685.25C547.434 685.25 522.684 732 522.684 767.25C522.684 799.5 539.934 819.75 574.434 819.75C604.684 819.75 627.934 800.5 637.184 777.75H608.184C603.184 790 591.184 798.75 575.934 798.75C560.684 798.75 549.684 790.5 549.684 770.5C549.684 766.75 550.184 762.75 550.934 758.25H643.684ZM594.184 706.25C609.934 706.25 620.434 714.75 620.434 732C620.434 734.25 620.184 736.75 619.934 739.5H555.434C562.684 717.5 577.684 706.25 594.184 706.25ZM32 1076L76.25 898H47.75L3.5 1076H32ZM134.441 925.25L141.191 898H112.691L105.941 925.25H134.441ZM96.9414 1076L128.441 949H99.9414L68.4414 1076H96.9414ZM228.133 946C213.133 946 199.383 953 188.883 963.5H188.383L192.133 949H165.133L133.383 1076H161.883L179.633 1005.5C185.633 981.25 201.383 969 217.633 969C229.883 969 236.883 975 236.883 987.5C236.883 991.75 236.383 996.5 234.883 1002.25L216.633 1076H245.133L263.633 1001.75C265.383 995 266.133 988.75 266.133 983.25C266.133 958.75 251.883 946 228.133 946ZM407.355 1018.25C409.605 1008.5 410.355 1001.5 410.355 995.25C410.355 965 393.355 945.25 359.605 945.25C311.105 945.25 286.355 992 286.355 1027.25C286.355 1059.5 303.605 1079.75 338.105 1079.75C368.355 1079.75 391.605 1060.5 400.855 1037.75H371.855C366.855 1050 354.855 1058.75 339.605 1058.75C324.355 1058.75 313.355 1050.5 313.355 1030.5C313.355 1026.75 313.855 1022.75 314.605 1018.25H407.355ZM357.855 966.25C373.605 966.25 384.105 974.75 384.105 992C384.105 994.25 383.855 996.75 383.605 999.5H319.105C326.355 977.5 341.355 966.25 357.855 966.25Z" fill="black"/>
</svg>
